<svg xmlns="http://www.w3.org/2000/svg" width="860" height="280"
  viewBox="0 0 860 280" style="background:#fff;border-radius:12px;font-family:system-ui,sans-serif">
  <defs>
    <linearGradient id="grad0" x1="0" y1="0" x2="0" y2="1">
      <stop offset="0%"   stop-color="#818cf8" stop-opacity="0.35"/>
      <stop offset="100%" stop-color="#818cf8" stop-opacity="0.02"/>
    </linearGradient>
    <linearGradient id="grad1" x1="0" y1="0" x2="0" y2="1">
      <stop offset="0%"   stop-color="#34d399" stop-opacity="0.35"/>
      <stop offset="100%" stop-color="#34d399" stop-opacity="0.02"/>
    </linearGradient>
  </defs>

  <!-- Y grid + labels -->
  
    <line x1="64" y1="224.0" x2="836" y2="224.0"
      stroke="#e5e7eb" stroke-width="1"/>
    <text x="56" y="224.0" text-anchor="end" dominant-baseline="middle"
      font-size="11" fill="#6b7280">0</text>
    <line x1="64" y1="179.9" x2="836" y2="179.9"
      stroke="#e5e7eb" stroke-width="1"/>
    <text x="56" y="179.9" text-anchor="end" dominant-baseline="middle"
      font-size="11" fill="#6b7280">176</text>
    <line x1="64" y1="135.9" x2="836" y2="135.9"
      stroke="#e5e7eb" stroke-width="1"/>
    <text x="56" y="135.9" text-anchor="end" dominant-baseline="middle"
      font-size="11" fill="#6b7280">352</text>
    <line x1="64" y1="92.1" x2="836" y2="92.1"
      stroke="#e5e7eb" stroke-width="1"/>
    <text x="56" y="92.1" text-anchor="end" dominant-baseline="middle"
      font-size="11" fill="#6b7280">527</text>
    <line x1="64" y1="48.0" x2="836" y2="48.0"
      stroke="#e5e7eb" stroke-width="1"/>
    <text x="56" y="48.0" text-anchor="end" dominant-baseline="middle"
      font-size="11" fill="#6b7280">703</text>

  <!-- Areas -->
  
    <polygon points="64.0,216.0 90.6,220.7 117.2,223.7 143.9,223.7 170.5,221.2 197.1,73.5 223.7,211.5 250.3,223.5 277.0,221.7 303.6,219.0 330.2,219.7 356.8,82.0 383.4,214.7 410.1,64.8 436.7,216.2 463.3,211.7 489.9,216.2 516.6,188.7 543.2,217.7 569.8,219.5 596.4,223.5 623.0,223.7 649.7,213.5 676.3,172.4 702.9,188.2 729.5,210.0 756.1,222.2 782.8,214.7 809.4,223.7 836.0,217.7 836.0,224.0 64.0,224.0" fill="url(#grad0)"/>
    <polygon points="64.0,212.5 90.6,220.5 117.2,223.7 143.9,224.0 170.5,220.5 197.1,66.3 223.7,213.7 250.3,222.5 277.0,218.5 303.6,223.0 330.2,219.5 356.8,73.5 383.4,215.2 410.1,48.0 436.7,213.7 463.3,209.0 489.9,216.0 516.6,185.4 543.2,219.0 569.8,221.5 596.4,222.7 623.0,223.5 649.7,212.2 676.3,169.2 702.9,190.2 729.5,212.2 756.1,220.7 782.8,214.5 809.4,223.0 836.0,217.5 836.0,224.0 64.0,224.0" fill="url(#grad1)"/>

  <!-- Lines -->
  
    <polyline points="64.0,216.0 90.6,220.7 117.2,223.7 143.9,223.7 170.5,221.2 197.1,73.5 223.7,211.5 250.3,223.5 277.0,221.7 303.6,219.0 330.2,219.7 356.8,82.0 383.4,214.7 410.1,64.8 436.7,216.2 463.3,211.7 489.9,216.2 516.6,188.7 543.2,217.7 569.8,219.5 596.4,223.5 623.0,223.7 649.7,213.5 676.3,172.4 702.9,188.2 729.5,210.0 756.1,222.2 782.8,214.7 809.4,223.7 836.0,217.7"
      fill="none" stroke="#6366f1" stroke-width="2.2"
      stroke-linejoin="round" stroke-linecap="round"/>
    <polyline points="64.0,212.5 90.6,220.5 117.2,223.7 143.9,224.0 170.5,220.5 197.1,66.3 223.7,213.7 250.3,222.5 277.0,218.5 303.6,223.0 330.2,219.5 356.8,73.5 383.4,215.2 410.1,48.0 436.7,213.7 463.3,209.0 489.9,216.0 516.6,185.4 543.2,219.0 569.8,221.5 596.4,222.7 623.0,223.5 649.7,212.2 676.3,169.2 702.9,190.2 729.5,212.2 756.1,220.7 782.8,214.5 809.4,223.0 836.0,217.5"
      fill="none" stroke="#10b981" stroke-width="2.2"
      stroke-linejoin="round" stroke-linecap="round"/>

  <!-- X axis labels -->
  
    <text x="64.0" y="242"
      text-anchor="middle" font-size="11" fill="#6b7280">Apr 26</text>
    <text x="197.1" y="242"
      text-anchor="middle" font-size="11" fill="#6b7280">May 1</text>
    <text x="330.2" y="242"
      text-anchor="middle" font-size="11" fill="#6b7280">May 6</text>
    <text x="463.3" y="242"
      text-anchor="middle" font-size="11" fill="#6b7280">May 11</text>
    <text x="596.4" y="242"
      text-anchor="middle" font-size="11" fill="#6b7280">May 16</text>
    <text x="729.5" y="242"
      text-anchor="middle" font-size="11" fill="#6b7280">May 21</text>
    <text x="836.0" y="242"
      text-anchor="middle" font-size="11" fill="#6b7280">May 25</text>

  <!-- End-point dots -->
  
    <circle cx="836.0" cy="217.7" r="4"
      fill="#6366f1" stroke="#fff" stroke-width="2">
      <title>25 downloads</title>
    </circle>
    <circle cx="836.0" cy="217.5" r="4"
      fill="#10b981" stroke="#fff" stroke-width="2">
      <title>26 downloads</title>
    </circle>

  <!-- Legend (top-left) -->
  
    <rect x="64" y="12" width="12" height="12" rx="3" fill="#6366f1"/>
    <text x="82" y="22" font-size="13" fill="#374151" font-weight="600">
      @doquflow/cli
    </text>
    <text x="82" y="36" font-size="11" fill="#6b7280">
      2,812 last 30 days
    </text>
    <rect x="284" y="12" width="12" height="12" rx="3" fill="#10b981"/>
    <text x="302" y="22" font-size="13" fill="#374151" font-weight="600">
      @doquflow/server
    </text>
    <text x="302" y="36" font-size="11" fill="#6b7280">
      2,988 last 30 days
    </text>

  <!-- Updated timestamp (bottom-right) -->
  <text x="836" y="272" text-anchor="end"
    font-size="10" fill="#9ca3af">Updated 2026-05-27</text>

  <!-- Axes -->
  <line x1="64" y1="48" x2="64" y2="224"
    stroke="#d1d5db" stroke-width="1"/>
  <line x1="64" y1="224" x2="836" y2="224"
    stroke="#d1d5db" stroke-width="1"/>
</svg>