<svg xmlns="http://www.w3.org/2000/svg" width="860" height="280"
  viewBox="0 0 860 280" style="background:#fff;border-radius:12px;font-family:system-ui,sans-serif">
  <defs>
    <linearGradient id="grad0" x1="0" y1="0" x2="0" y2="1">
      <stop offset="0%"   stop-color="#818cf8" stop-opacity="0.35"/>
      <stop offset="100%" stop-color="#818cf8" stop-opacity="0.02"/>
    </linearGradient>
    <linearGradient id="grad1" x1="0" y1="0" x2="0" y2="1">
      <stop offset="0%"   stop-color="#34d399" stop-opacity="0.35"/>
      <stop offset="100%" stop-color="#34d399" stop-opacity="0.02"/>
    </linearGradient>
  </defs>

  <!-- Y grid + labels -->
  
    <line x1="64" y1="224.0" x2="836" y2="224.0"
      stroke="#e5e7eb" stroke-width="1"/>
    <text x="56" y="224.0" text-anchor="end" dominant-baseline="middle"
      font-size="11" fill="#6b7280">0</text>
    <line x1="64" y1="179.9" x2="836" y2="179.9"
      stroke="#e5e7eb" stroke-width="1"/>
    <text x="56" y="179.9" text-anchor="end" dominant-baseline="middle"
      font-size="11" fill="#6b7280">183</text>
    <line x1="64" y1="136.0" x2="836" y2="136.0"
      stroke="#e5e7eb" stroke-width="1"/>
    <text x="56" y="136.0" text-anchor="end" dominant-baseline="middle"
      font-size="11" fill="#6b7280">365</text>
    <line x1="64" y1="91.9" x2="836" y2="91.9"
      stroke="#e5e7eb" stroke-width="1"/>
    <text x="56" y="91.9" text-anchor="end" dominant-baseline="middle"
      font-size="11" fill="#6b7280">548</text>
    <line x1="64" y1="48.0" x2="836" y2="48.0"
      stroke="#e5e7eb" stroke-width="1"/>
    <text x="56" y="48.0" text-anchor="end" dominant-baseline="middle"
      font-size="11" fill="#6b7280">730</text>

  <!-- Areas -->
  
    <polygon points="64.0,62.9 90.6,220.1 117.2,219.7 143.9,216.3 170.5,220.9 197.1,223.8 223.7,223.8 250.3,221.3 277.0,79.1 303.6,211.9 330.2,223.5 356.8,221.8 383.4,219.2 410.1,219.9 436.7,87.3 463.3,215.1 489.9,70.7 516.6,216.5 543.2,212.2 569.8,216.5 596.4,190.0 623.0,218.0 649.7,219.7 676.3,223.5 702.9,223.8 729.5,213.9 756.1,174.3 782.8,189.5 809.4,210.5 836.0,222.3 836.0,224.0 64.0,224.0" fill="url(#grad0)"/>
    <polygon points="64.0,48.0 90.6,220.4 117.2,217.2 143.9,212.9 170.5,220.6 197.1,223.8 223.7,224.0 250.3,220.6 277.0,72.1 303.6,214.1 330.2,222.6 356.8,218.7 383.4,223.0 410.1,219.7 436.7,79.1 463.3,215.6 489.9,54.5 516.6,214.1 543.2,209.5 569.8,216.3 596.4,186.9 623.0,219.2 649.7,221.6 676.3,222.8 702.9,223.5 729.5,212.7 756.1,171.2 782.8,191.5 809.4,212.7 836.0,220.9 836.0,224.0 64.0,224.0" fill="url(#grad1)"/>

  <!-- Lines -->
  
    <polyline points="64.0,62.9 90.6,220.1 117.2,219.7 143.9,216.3 170.5,220.9 197.1,223.8 223.7,223.8 250.3,221.3 277.0,79.1 303.6,211.9 330.2,223.5 356.8,221.8 383.4,219.2 410.1,219.9 436.7,87.3 463.3,215.1 489.9,70.7 516.6,216.5 543.2,212.2 569.8,216.5 596.4,190.0 623.0,218.0 649.7,219.7 676.3,223.5 702.9,223.8 729.5,213.9 756.1,174.3 782.8,189.5 809.4,210.5 836.0,222.3"
      fill="none" stroke="#6366f1" stroke-width="2.2"
      stroke-linejoin="round" stroke-linecap="round"/>
    <polyline points="64.0,48.0 90.6,220.4 117.2,217.2 143.9,212.9 170.5,220.6 197.1,223.8 223.7,224.0 250.3,220.6 277.0,72.1 303.6,214.1 330.2,222.6 356.8,218.7 383.4,223.0 410.1,219.7 436.7,79.1 463.3,215.6 489.9,54.5 516.6,214.1 543.2,209.5 569.8,216.3 596.4,186.9 623.0,219.2 649.7,221.6 676.3,222.8 702.9,223.5 729.5,212.7 756.1,171.2 782.8,191.5 809.4,212.7 836.0,220.9"
      fill="none" stroke="#10b981" stroke-width="2.2"
      stroke-linejoin="round" stroke-linecap="round"/>

  <!-- X axis labels -->
  
    <text x="64.0" y="242"
      text-anchor="middle" font-size="11" fill="#6b7280">Apr 23</text>
    <text x="197.1" y="242"
      text-anchor="middle" font-size="11" fill="#6b7280">Apr 28</text>
    <text x="330.2" y="242"
      text-anchor="middle" font-size="11" fill="#6b7280">May 3</text>
    <text x="463.3" y="242"
      text-anchor="middle" font-size="11" fill="#6b7280">May 8</text>
    <text x="596.4" y="242"
      text-anchor="middle" font-size="11" fill="#6b7280">May 13</text>
    <text x="729.5" y="242"
      text-anchor="middle" font-size="11" fill="#6b7280">May 18</text>
    <text x="836.0" y="242"
      text-anchor="middle" font-size="11" fill="#6b7280">May 22</text>

  <!-- End-point dots -->
  
    <circle cx="836.0" cy="222.3" r="4"
      fill="#6366f1" stroke="#fff" stroke-width="2">
      <title>7 downloads</title>
    </circle>
    <circle cx="836.0" cy="220.9" r="4"
      fill="#10b981" stroke="#fff" stroke-width="2">
      <title>13 downloads</title>
    </circle>

  <!-- Legend (top-left) -->
  
    <rect x="64" y="12" width="12" height="12" rx="3" fill="#6366f1"/>
    <text x="82" y="22" font-size="13" fill="#374151" font-weight="600">
      @doquflow/cli
    </text>
    <text x="82" y="36" font-size="11" fill="#6b7280">
      3,451 last 30 days
    </text>
    <rect x="284" y="12" width="12" height="12" rx="3" fill="#10b981"/>
    <text x="302" y="22" font-size="13" fill="#374151" font-weight="600">
      @doquflow/server
    </text>
    <text x="302" y="36" font-size="11" fill="#6b7280">
      3,693 last 30 days
    </text>

  <!-- Updated timestamp (bottom-right) -->
  <text x="836" y="272" text-anchor="end"
    font-size="10" fill="#9ca3af">Updated 2026-05-23</text>

  <!-- Axes -->
  <line x1="64" y1="48" x2="64" y2="224"
    stroke="#d1d5db" stroke-width="1"/>
  <line x1="64" y1="224" x2="836" y2="224"
    stroke="#d1d5db" stroke-width="1"/>
</svg>