<svg xmlns="http://www.w3.org/2000/svg" width="860" height="280"
  viewBox="0 0 860 280" style="background:#fff;border-radius:12px;font-family:system-ui,sans-serif">
  <defs>
    <linearGradient id="grad0" x1="0" y1="0" x2="0" y2="1">
      <stop offset="0%"   stop-color="#818cf8" stop-opacity="0.35"/>
      <stop offset="100%" stop-color="#818cf8" stop-opacity="0.02"/>
    </linearGradient>
    <linearGradient id="grad1" x1="0" y1="0" x2="0" y2="1">
      <stop offset="0%"   stop-color="#34d399" stop-opacity="0.35"/>
      <stop offset="100%" stop-color="#34d399" stop-opacity="0.02"/>
    </linearGradient>
  </defs>

  <!-- Y grid + labels -->
  
    <line x1="64" y1="224.0" x2="836" y2="224.0"
      stroke="#e5e7eb" stroke-width="1"/>
    <text x="56" y="224.0" text-anchor="end" dominant-baseline="middle"
      font-size="11" fill="#6b7280">0</text>
    <line x1="64" y1="179.7" x2="836" y2="179.7"
      stroke="#e5e7eb" stroke-width="1"/>
    <text x="56" y="179.7" text-anchor="end" dominant-baseline="middle"
      font-size="11" fill="#6b7280">42</text>
    <line x1="64" y1="135.5" x2="836" y2="135.5"
      stroke="#e5e7eb" stroke-width="1"/>
    <text x="56" y="135.5" text-anchor="end" dominant-baseline="middle"
      font-size="11" fill="#6b7280">84</text>
    <line x1="64" y1="92.3" x2="836" y2="92.3"
      stroke="#e5e7eb" stroke-width="1"/>
    <text x="56" y="92.3" text-anchor="end" dominant-baseline="middle"
      font-size="11" fill="#6b7280">125</text>
    <line x1="64" y1="48.0" x2="836" y2="48.0"
      stroke="#e5e7eb" stroke-width="1"/>
    <text x="56" y="48.0" text-anchor="end" dominant-baseline="middle"
      font-size="11" fill="#6b7280">167</text>

  <!-- Areas -->
  
    <polygon points="64.0,224.0 90.6,213.5 117.2,210.3 143.9,68.0 170.5,48.0 197.1,208.2 223.7,213.5 250.3,179.7 277.0,219.8 303.6,222.9 330.2,179.7 356.8,216.6 383.4,221.9 410.1,212.4 436.7,222.9 463.3,221.9 489.9,171.3 516.6,210.3 543.2,171.3 569.8,222.9 596.4,216.6 623.0,220.8 649.7,221.9 676.3,214.5 702.9,224.0 729.5,208.2 756.1,214.5 782.8,224.0 809.4,220.8 836.0,197.7 836.0,224.0 64.0,224.0" fill="url(#grad0)"/>
    <polygon points="64.0,224.0 90.6,212.4 117.2,218.7 143.9,87.0 170.5,54.3 197.1,176.6 223.7,218.7 250.3,179.7 277.0,221.9 303.6,224.0 330.2,179.7 356.8,216.6 383.4,218.7 410.1,217.7 436.7,219.8 463.3,224.0 489.9,182.9 516.6,215.6 543.2,218.7 569.8,220.8 596.4,220.8 623.0,219.8 649.7,220.8 676.3,212.4 702.9,224.0 729.5,209.2 756.1,222.9 782.8,224.0 809.4,221.9 836.0,200.8 836.0,224.0 64.0,224.0" fill="url(#grad1)"/>

  <!-- Lines -->
  
    <polyline points="64.0,224.0 90.6,213.5 117.2,210.3 143.9,68.0 170.5,48.0 197.1,208.2 223.7,213.5 250.3,179.7 277.0,219.8 303.6,222.9 330.2,179.7 356.8,216.6 383.4,221.9 410.1,212.4 436.7,222.9 463.3,221.9 489.9,171.3 516.6,210.3 543.2,171.3 569.8,222.9 596.4,216.6 623.0,220.8 649.7,221.9 676.3,214.5 702.9,224.0 729.5,208.2 756.1,214.5 782.8,224.0 809.4,220.8 836.0,197.7"
      fill="none" stroke="#6366f1" stroke-width="2.2"
      stroke-linejoin="round" stroke-linecap="round"/>
    <polyline points="64.0,224.0 90.6,212.4 117.2,218.7 143.9,87.0 170.5,54.3 197.1,176.6 223.7,218.7 250.3,179.7 277.0,221.9 303.6,224.0 330.2,179.7 356.8,216.6 383.4,218.7 410.1,217.7 436.7,219.8 463.3,224.0 489.9,182.9 516.6,215.6 543.2,218.7 569.8,220.8 596.4,220.8 623.0,219.8 649.7,220.8 676.3,212.4 702.9,224.0 729.5,209.2 756.1,222.9 782.8,224.0 809.4,221.9 836.0,200.8"
      fill="none" stroke="#10b981" stroke-width="2.2"
      stroke-linejoin="round" stroke-linecap="round"/>

  <!-- X axis labels -->
  
    <text x="64.0" y="242"
      text-anchor="middle" font-size="11" fill="#6b7280">Jun 15</text>
    <text x="197.1" y="242"
      text-anchor="middle" font-size="11" fill="#6b7280">Jun 20</text>
    <text x="330.2" y="242"
      text-anchor="middle" font-size="11" fill="#6b7280">Jun 25</text>
    <text x="463.3" y="242"
      text-anchor="middle" font-size="11" fill="#6b7280">Jun 30</text>
    <text x="596.4" y="242"
      text-anchor="middle" font-size="11" fill="#6b7280">Jul 5</text>
    <text x="729.5" y="242"
      text-anchor="middle" font-size="11" fill="#6b7280">Jul 10</text>
    <text x="836.0" y="242"
      text-anchor="middle" font-size="11" fill="#6b7280">Jul 14</text>

  <!-- End-point dots -->
  
    <circle cx="836.0" cy="197.7" r="4"
      fill="#6366f1" stroke="#fff" stroke-width="2">
      <title>25 downloads</title>
    </circle>
    <circle cx="836.0" cy="200.8" r="4"
      fill="#10b981" stroke="#fff" stroke-width="2">
      <title>22 downloads</title>
    </circle>

  <!-- Legend (top-left) -->
  
    <rect x="64" y="12" width="12" height="12" rx="3" fill="#6366f1"/>
    <text x="82" y="22" font-size="13" fill="#374151" font-weight="600">
      @doquflow/cli
    </text>
    <text x="82" y="36" font-size="11" fill="#6b7280">
      662 last 30 days
    </text>
    <rect x="284" y="12" width="12" height="12" rx="3" fill="#10b981"/>
    <text x="302" y="22" font-size="13" fill="#374151" font-weight="600">
      @doquflow/server
    </text>
    <text x="302" y="36" font-size="11" fill="#6b7280">
      580 last 30 days
    </text>

  <!-- Updated timestamp (bottom-right) -->
  <text x="836" y="272" text-anchor="end"
    font-size="10" fill="#9ca3af">Updated 2026-07-16</text>

  <!-- Axes -->
  <line x1="64" y1="48" x2="64" y2="224"
    stroke="#d1d5db" stroke-width="1"/>
  <line x1="64" y1="224" x2="836" y2="224"
    stroke="#d1d5db" stroke-width="1"/>
</svg>