<svg xmlns="http://www.w3.org/2000/svg" width="860" height="280"
  viewBox="0 0 860 280" style="background:#fff;border-radius:12px;font-family:system-ui,sans-serif">
  <defs>
    <linearGradient id="grad0" x1="0" y1="0" x2="0" y2="1">
      <stop offset="0%"   stop-color="#818cf8" stop-opacity="0.35"/>
      <stop offset="100%" stop-color="#818cf8" stop-opacity="0.02"/>
    </linearGradient>
    <linearGradient id="grad1" x1="0" y1="0" x2="0" y2="1">
      <stop offset="0%"   stop-color="#34d399" stop-opacity="0.35"/>
      <stop offset="100%" stop-color="#34d399" stop-opacity="0.02"/>
    </linearGradient>
  </defs>

  <!-- Y grid + labels -->
  
    <line x1="64" y1="224.0" x2="836" y2="224.0"
      stroke="#e5e7eb" stroke-width="1"/>
    <text x="56" y="224.0" text-anchor="end" dominant-baseline="middle"
      font-size="11" fill="#6b7280">0</text>
    <line x1="64" y1="178.2" x2="836" y2="178.2"
      stroke="#e5e7eb" stroke-width="1"/>
    <text x="56" y="178.2" text-anchor="end" dominant-baseline="middle"
      font-size="11" fill="#6b7280">13</text>
    <line x1="64" y1="136.0" x2="836" y2="136.0"
      stroke="#e5e7eb" stroke-width="1"/>
    <text x="56" y="136.0" text-anchor="end" dominant-baseline="middle"
      font-size="11" fill="#6b7280">25</text>
    <line x1="64" y1="90.2" x2="836" y2="90.2"
      stroke="#e5e7eb" stroke-width="1"/>
    <text x="56" y="90.2" text-anchor="end" dominant-baseline="middle"
      font-size="11" fill="#6b7280">38</text>
    <line x1="64" y1="48.0" x2="836" y2="48.0"
      stroke="#e5e7eb" stroke-width="1"/>
    <text x="56" y="48.0" text-anchor="end" dominant-baseline="middle"
      font-size="11" fill="#6b7280">50</text>

  <!-- Areas -->
  
    <polygon points="64.0,76.2 90.6,209.9 117.2,220.5 143.9,76.2 170.5,199.4 197.1,217.0 223.7,185.3 250.3,220.5 277.0,217.0 303.6,48.0 330.2,178.2 356.8,48.0 383.4,220.5 410.1,199.4 436.7,213.4 463.3,217.0 489.9,192.3 516.6,224.0 543.2,171.2 569.8,192.3 596.4,224.0 623.0,213.4 649.7,136.0 676.3,192.3 702.9,217.0 729.5,209.9 756.1,217.0 782.8,213.4 809.4,209.9 836.0,224.0 836.0,224.0 64.0,224.0" fill="url(#grad0)"/>
    <polygon points="64.0,76.2 90.6,217.0 117.2,224.0 143.9,76.2 170.5,199.4 197.1,206.4 223.7,202.9 250.3,209.9 277.0,224.0 303.6,86.7 330.2,195.8 356.8,206.4 383.4,213.4 410.1,213.4 436.7,209.9 463.3,213.4 489.9,185.3 516.6,224.0 543.2,174.7 569.8,220.5 596.4,224.0 623.0,217.0 649.7,146.6 676.3,188.8 702.9,217.0 729.5,202.9 756.1,181.8 782.8,202.9 809.4,199.4 836.0,217.0 836.0,224.0 64.0,224.0" fill="url(#grad1)"/>

  <!-- Lines -->
  
    <polyline points="64.0,76.2 90.6,209.9 117.2,220.5 143.9,76.2 170.5,199.4 197.1,217.0 223.7,185.3 250.3,220.5 277.0,217.0 303.6,48.0 330.2,178.2 356.8,48.0 383.4,220.5 410.1,199.4 436.7,213.4 463.3,217.0 489.9,192.3 516.6,224.0 543.2,171.2 569.8,192.3 596.4,224.0 623.0,213.4 649.7,136.0 676.3,192.3 702.9,217.0 729.5,209.9 756.1,217.0 782.8,213.4 809.4,209.9 836.0,224.0"
      fill="none" stroke="#6366f1" stroke-width="2.2"
      stroke-linejoin="round" stroke-linecap="round"/>
    <polyline points="64.0,76.2 90.6,217.0 117.2,224.0 143.9,76.2 170.5,199.4 197.1,206.4 223.7,202.9 250.3,209.9 277.0,224.0 303.6,86.7 330.2,195.8 356.8,206.4 383.4,213.4 410.1,213.4 436.7,209.9 463.3,213.4 489.9,185.3 516.6,224.0 543.2,174.7 569.8,220.5 596.4,224.0 623.0,217.0 649.7,146.6 676.3,188.8 702.9,217.0 729.5,202.9 756.1,181.8 782.8,202.9 809.4,199.4 836.0,217.0"
      fill="none" stroke="#10b981" stroke-width="2.2"
      stroke-linejoin="round" stroke-linecap="round"/>

  <!-- X axis labels -->
  
    <text x="64.0" y="242"
      text-anchor="middle" font-size="11" fill="#6b7280">Jun 22</text>
    <text x="197.1" y="242"
      text-anchor="middle" font-size="11" fill="#6b7280">Jun 27</text>
    <text x="330.2" y="242"
      text-anchor="middle" font-size="11" fill="#6b7280">Jul 2</text>
    <text x="463.3" y="242"
      text-anchor="middle" font-size="11" fill="#6b7280">Jul 7</text>
    <text x="596.4" y="242"
      text-anchor="middle" font-size="11" fill="#6b7280">Jul 12</text>
    <text x="729.5" y="242"
      text-anchor="middle" font-size="11" fill="#6b7280">Jul 17</text>
    <text x="836.0" y="242"
      text-anchor="middle" font-size="11" fill="#6b7280">Jul 21</text>

  <!-- End-point dots -->
  
    <circle cx="836.0" cy="224.0" r="4"
      fill="#6366f1" stroke="#fff" stroke-width="2">
      <title>0 downloads</title>
    </circle>
    <circle cx="836.0" cy="217.0" r="4"
      fill="#10b981" stroke="#fff" stroke-width="2">
      <title>2 downloads</title>
    </circle>

  <!-- Legend (top-left) -->
  
    <rect x="64" y="12" width="12" height="12" rx="3" fill="#6366f1"/>
    <text x="82" y="22" font-size="13" fill="#374151" font-weight="600">
      @doquflow/cli
    </text>
    <text x="82" y="36" font-size="11" fill="#6b7280">
      323 last 30 days
    </text>
    <rect x="284" y="12" width="12" height="12" rx="3" fill="#10b981"/>
    <text x="302" y="22" font-size="13" fill="#374151" font-weight="600">
      @doquflow/server
    </text>
    <text x="302" y="36" font-size="11" fill="#6b7280">
      268 last 30 days
    </text>

  <!-- Updated timestamp (bottom-right) -->
  <text x="836" y="272" text-anchor="end"
    font-size="10" fill="#9ca3af">Updated 2026-07-22</text>

  <!-- Axes -->
  <line x1="64" y1="48" x2="64" y2="224"
    stroke="#d1d5db" stroke-width="1"/>
  <line x1="64" y1="224" x2="836" y2="224"
    stroke="#d1d5db" stroke-width="1"/>
</svg>