<svg xmlns="http://www.w3.org/2000/svg" width="860" height="280"
  viewBox="0 0 860 280" style="background:#fff;border-radius:12px;font-family:system-ui,sans-serif">
  <defs>
    <linearGradient id="grad0" x1="0" y1="0" x2="0" y2="1">
      <stop offset="0%"   stop-color="#818cf8" stop-opacity="0.35"/>
      <stop offset="100%" stop-color="#818cf8" stop-opacity="0.02"/>
    </linearGradient>
    <linearGradient id="grad1" x1="0" y1="0" x2="0" y2="1">
      <stop offset="0%"   stop-color="#34d399" stop-opacity="0.35"/>
      <stop offset="100%" stop-color="#34d399" stop-opacity="0.02"/>
    </linearGradient>
  </defs>

  <!-- Y grid + labels -->
  
    <line x1="64" y1="224.0" x2="836" y2="224.0"
      stroke="#e5e7eb" stroke-width="1"/>
    <text x="56" y="224.0" text-anchor="end" dominant-baseline="middle"
      font-size="11" fill="#6b7280">0</text>
    <line x1="64" y1="180.1" x2="836" y2="180.1"
      stroke="#e5e7eb" stroke-width="1"/>
    <text x="56" y="180.1" text-anchor="end" dominant-baseline="middle"
      font-size="11" fill="#6b7280">124</text>
    <line x1="64" y1="135.8" x2="836" y2="135.8"
      stroke="#e5e7eb" stroke-width="1"/>
    <text x="56" y="135.8" text-anchor="end" dominant-baseline="middle"
      font-size="11" fill="#6b7280">249</text>
    <line x1="64" y1="91.9" x2="836" y2="91.9"
      stroke="#e5e7eb" stroke-width="1"/>
    <text x="56" y="91.9" text-anchor="end" dominant-baseline="middle"
      font-size="11" fill="#6b7280">373</text>
    <line x1="64" y1="48.0" x2="836" y2="48.0"
      stroke="#e5e7eb" stroke-width="1"/>
    <text x="56" y="48.0" text-anchor="end" dominant-baseline="middle"
      font-size="11" fill="#6b7280">497</text>

  <!-- Areas -->
  
    <polygon points="64.0,151.1 90.6,173.4 117.2,204.2 143.9,221.5 170.5,210.9 197.1,223.6 223.7,215.1 250.3,224.0 277.0,223.6 303.6,223.6 330.2,223.3 356.8,224.0 383.4,224.0 410.1,222.9 436.7,216.2 463.3,224.0 489.9,217.6 516.6,220.1 543.2,224.0 569.8,220.8 596.4,222.6 623.0,211.6 649.7,90.1 676.3,48.0 702.9,212.7 729.5,220.1 756.1,220.1 782.8,224.0 809.4,220.5 836.0,219.4 836.0,224.0 64.0,224.0" fill="url(#grad0)"/>
    <polygon points="64.0,146.4 90.6,176.2 117.2,207.4 143.9,219.4 170.5,210.5 197.1,222.6 223.7,214.8 250.3,224.0 277.0,223.6 303.6,211.6 330.2,222.9 356.8,223.3 383.4,223.6 410.1,224.0 436.7,216.9 463.3,196.7 489.9,224.0 516.6,220.1 543.2,224.0 569.8,222.2 596.4,222.6 623.0,209.1 649.7,92.3 676.3,61.8 702.9,213.7 729.5,220.5 756.1,220.5 782.8,224.0 809.4,220.1 836.0,222.2 836.0,224.0 64.0,224.0" fill="url(#grad1)"/>

  <!-- Lines -->
  
    <polyline points="64.0,151.1 90.6,173.4 117.2,204.2 143.9,221.5 170.5,210.9 197.1,223.6 223.7,215.1 250.3,224.0 277.0,223.6 303.6,223.6 330.2,223.3 356.8,224.0 383.4,224.0 410.1,222.9 436.7,216.2 463.3,224.0 489.9,217.6 516.6,220.1 543.2,224.0 569.8,220.8 596.4,222.6 623.0,211.6 649.7,90.1 676.3,48.0 702.9,212.7 729.5,220.1 756.1,220.1 782.8,224.0 809.4,220.5 836.0,219.4"
      fill="none" stroke="#6366f1" stroke-width="2.2"
      stroke-linejoin="round" stroke-linecap="round"/>
    <polyline points="64.0,146.4 90.6,176.2 117.2,207.4 143.9,219.4 170.5,210.5 197.1,222.6 223.7,214.8 250.3,224.0 277.0,223.6 303.6,211.6 330.2,222.9 356.8,223.3 383.4,223.6 410.1,224.0 436.7,216.9 463.3,196.7 489.9,224.0 516.6,220.1 543.2,224.0 569.8,222.2 596.4,222.6 623.0,209.1 649.7,92.3 676.3,61.8 702.9,213.7 729.5,220.5 756.1,220.5 782.8,224.0 809.4,220.1 836.0,222.2"
      fill="none" stroke="#10b981" stroke-width="2.2"
      stroke-linejoin="round" stroke-linecap="round"/>

  <!-- X axis labels -->
  
    <text x="64.0" y="242"
      text-anchor="middle" font-size="11" fill="#6b7280">May 19</text>
    <text x="197.1" y="242"
      text-anchor="middle" font-size="11" fill="#6b7280">May 24</text>
    <text x="330.2" y="242"
      text-anchor="middle" font-size="11" fill="#6b7280">May 29</text>
    <text x="463.3" y="242"
      text-anchor="middle" font-size="11" fill="#6b7280">Jun 3</text>
    <text x="596.4" y="242"
      text-anchor="middle" font-size="11" fill="#6b7280">Jun 8</text>
    <text x="729.5" y="242"
      text-anchor="middle" font-size="11" fill="#6b7280">Jun 13</text>
    <text x="836.0" y="242"
      text-anchor="middle" font-size="11" fill="#6b7280">Jun 17</text>

  <!-- End-point dots -->
  
    <circle cx="836.0" cy="219.4" r="4"
      fill="#6366f1" stroke="#fff" stroke-width="2">
      <title>13 downloads</title>
    </circle>
    <circle cx="836.0" cy="222.2" r="4"
      fill="#10b981" stroke="#fff" stroke-width="2">
      <title>5 downloads</title>
    </circle>

  <!-- Legend (top-left) -->
  
    <rect x="64" y="12" width="12" height="12" rx="3" fill="#6366f1"/>
    <text x="82" y="22" font-size="13" fill="#374151" font-weight="600">
      @doquflow/cli
    </text>
    <text x="82" y="36" font-size="11" fill="#6b7280">
      1,533 last 30 days
    </text>
    <rect x="284" y="12" width="12" height="12" rx="3" fill="#10b981"/>
    <text x="302" y="22" font-size="13" fill="#374151" font-weight="600">
      @doquflow/server
    </text>
    <text x="302" y="36" font-size="11" fill="#6b7280">
      1,578 last 30 days
    </text>

  <!-- Updated timestamp (bottom-right) -->
  <text x="836" y="272" text-anchor="end"
    font-size="10" fill="#9ca3af">Updated 2026-06-19</text>

  <!-- Axes -->
  <line x1="64" y1="48" x2="64" y2="224"
    stroke="#d1d5db" stroke-width="1"/>
  <line x1="64" y1="224" x2="836" y2="224"
    stroke="#d1d5db" stroke-width="1"/>
</svg>