<svg xmlns="http://www.w3.org/2000/svg" width="860" height="280"
  viewBox="0 0 860 280" style="background:#fff;border-radius:12px;font-family:system-ui,sans-serif">
  <defs>
    <linearGradient id="grad0" x1="0" y1="0" x2="0" y2="1">
      <stop offset="0%"   stop-color="#818cf8" stop-opacity="0.35"/>
      <stop offset="100%" stop-color="#818cf8" stop-opacity="0.02"/>
    </linearGradient>
    <linearGradient id="grad1" x1="0" y1="0" x2="0" y2="1">
      <stop offset="0%"   stop-color="#34d399" stop-opacity="0.35"/>
      <stop offset="100%" stop-color="#34d399" stop-opacity="0.02"/>
    </linearGradient>
  </defs>

  <!-- Y grid + labels -->
  
    <line x1="64" y1="224.0" x2="836" y2="224.0"
      stroke="#e5e7eb" stroke-width="1"/>
    <text x="56" y="224.0" text-anchor="end" dominant-baseline="middle"
      font-size="11" fill="#6b7280">0</text>
    <line x1="64" y1="180.1" x2="836" y2="180.1"
      stroke="#e5e7eb" stroke-width="1"/>
    <text x="56" y="180.1" text-anchor="end" dominant-baseline="middle"
      font-size="11" fill="#6b7280">124</text>
    <line x1="64" y1="135.8" x2="836" y2="135.8"
      stroke="#e5e7eb" stroke-width="1"/>
    <text x="56" y="135.8" text-anchor="end" dominant-baseline="middle"
      font-size="11" fill="#6b7280">249</text>
    <line x1="64" y1="91.9" x2="836" y2="91.9"
      stroke="#e5e7eb" stroke-width="1"/>
    <text x="56" y="91.9" text-anchor="end" dominant-baseline="middle"
      font-size="11" fill="#6b7280">373</text>
    <line x1="64" y1="48.0" x2="836" y2="48.0"
      stroke="#e5e7eb" stroke-width="1"/>
    <text x="56" y="48.0" text-anchor="end" dominant-baseline="middle"
      font-size="11" fill="#6b7280">497</text>

  <!-- Areas -->
  
    <polygon points="64.0,217.6 90.6,223.3 117.2,223.6 143.9,209.1 170.5,151.1 197.1,173.4 223.7,204.2 250.3,221.5 277.0,210.9 303.6,223.6 330.2,215.1 356.8,224.0 383.4,223.6 410.1,223.6 436.7,223.3 463.3,224.0 489.9,224.0 516.6,222.9 543.2,216.2 569.8,224.0 596.4,217.6 623.0,220.1 649.7,224.0 676.3,220.8 702.9,222.6 729.5,211.6 756.1,90.1 782.8,48.0 809.4,212.7 836.0,220.1 836.0,224.0 64.0,224.0" fill="url(#grad0)"/>
    <polygon points="64.0,220.5 90.6,222.2 117.2,223.3 143.9,207.4 170.5,146.4 197.1,176.2 223.7,207.4 250.3,219.4 277.0,210.5 303.6,222.6 330.2,214.8 356.8,224.0 383.4,223.6 410.1,211.6 436.7,222.9 463.3,223.3 489.9,223.6 516.6,224.0 543.2,216.9 569.8,196.7 596.4,224.0 623.0,220.1 649.7,224.0 676.3,222.2 702.9,222.6 729.5,209.1 756.1,92.3 782.8,61.8 809.4,213.7 836.0,220.5 836.0,224.0 64.0,224.0" fill="url(#grad1)"/>

  <!-- Lines -->
  
    <polyline points="64.0,217.6 90.6,223.3 117.2,223.6 143.9,209.1 170.5,151.1 197.1,173.4 223.7,204.2 250.3,221.5 277.0,210.9 303.6,223.6 330.2,215.1 356.8,224.0 383.4,223.6 410.1,223.6 436.7,223.3 463.3,224.0 489.9,224.0 516.6,222.9 543.2,216.2 569.8,224.0 596.4,217.6 623.0,220.1 649.7,224.0 676.3,220.8 702.9,222.6 729.5,211.6 756.1,90.1 782.8,48.0 809.4,212.7 836.0,220.1"
      fill="none" stroke="#6366f1" stroke-width="2.2"
      stroke-linejoin="round" stroke-linecap="round"/>
    <polyline points="64.0,220.5 90.6,222.2 117.2,223.3 143.9,207.4 170.5,146.4 197.1,176.2 223.7,207.4 250.3,219.4 277.0,210.5 303.6,222.6 330.2,214.8 356.8,224.0 383.4,223.6 410.1,211.6 436.7,222.9 463.3,223.3 489.9,223.6 516.6,224.0 543.2,216.9 569.8,196.7 596.4,224.0 623.0,220.1 649.7,224.0 676.3,222.2 702.9,222.6 729.5,209.1 756.1,92.3 782.8,61.8 809.4,213.7 836.0,220.5"
      fill="none" stroke="#10b981" stroke-width="2.2"
      stroke-linejoin="round" stroke-linecap="round"/>

  <!-- X axis labels -->
  
    <text x="64.0" y="242"
      text-anchor="middle" font-size="11" fill="#6b7280">May 15</text>
    <text x="197.1" y="242"
      text-anchor="middle" font-size="11" fill="#6b7280">May 20</text>
    <text x="330.2" y="242"
      text-anchor="middle" font-size="11" fill="#6b7280">May 25</text>
    <text x="463.3" y="242"
      text-anchor="middle" font-size="11" fill="#6b7280">May 30</text>
    <text x="596.4" y="242"
      text-anchor="middle" font-size="11" fill="#6b7280">Jun 4</text>
    <text x="729.5" y="242"
      text-anchor="middle" font-size="11" fill="#6b7280">Jun 9</text>
    <text x="836.0" y="242"
      text-anchor="middle" font-size="11" fill="#6b7280">Jun 13</text>

  <!-- End-point dots -->
  
    <circle cx="836.0" cy="220.1" r="4"
      fill="#6366f1" stroke="#fff" stroke-width="2">
      <title>11 downloads</title>
    </circle>
    <circle cx="836.0" cy="220.5" r="4"
      fill="#10b981" stroke="#fff" stroke-width="2">
      <title>10 downloads</title>
    </circle>

  <!-- Legend (top-left) -->
  
    <rect x="64" y="12" width="12" height="12" rx="3" fill="#6366f1"/>
    <text x="82" y="22" font-size="13" fill="#374151" font-weight="600">
      @doquflow/cli
    </text>
    <text x="82" y="36" font-size="11" fill="#6b7280">
      1,562 last 30 days
    </text>
    <rect x="284" y="12" width="12" height="12" rx="3" fill="#10b981"/>
    <text x="302" y="22" font-size="13" fill="#374151" font-weight="600">
      @doquflow/server
    </text>
    <text x="302" y="36" font-size="11" fill="#6b7280">
      1,616 last 30 days
    </text>

  <!-- Updated timestamp (bottom-right) -->
  <text x="836" y="272" text-anchor="end"
    font-size="10" fill="#9ca3af">Updated 2026-06-14</text>

  <!-- Axes -->
  <line x1="64" y1="48" x2="64" y2="224"
    stroke="#d1d5db" stroke-width="1"/>
  <line x1="64" y1="224" x2="836" y2="224"
    stroke="#d1d5db" stroke-width="1"/>
</svg>