<svg xmlns="http://www.w3.org/2000/svg" width="860" height="280"
  viewBox="0 0 860 280" style="background:#fff;border-radius:12px;font-family:system-ui,sans-serif">
  <defs>
    <linearGradient id="grad0" x1="0" y1="0" x2="0" y2="1">
      <stop offset="0%"   stop-color="#818cf8" stop-opacity="0.35"/>
      <stop offset="100%" stop-color="#818cf8" stop-opacity="0.02"/>
    </linearGradient>
    <linearGradient id="grad1" x1="0" y1="0" x2="0" y2="1">
      <stop offset="0%"   stop-color="#34d399" stop-opacity="0.35"/>
      <stop offset="100%" stop-color="#34d399" stop-opacity="0.02"/>
    </linearGradient>
  </defs>

  <!-- Y grid + labels -->
  
    <line x1="64" y1="224.0" x2="836" y2="224.0"
      stroke="#e5e7eb" stroke-width="1"/>
    <text x="56" y="224.0" text-anchor="end" dominant-baseline="middle"
      font-size="11" fill="#6b7280">0</text>
    <line x1="64" y1="179.7" x2="836" y2="179.7"
      stroke="#e5e7eb" stroke-width="1"/>
    <text x="56" y="179.7" text-anchor="end" dominant-baseline="middle"
      font-size="11" fill="#6b7280">42</text>
    <line x1="64" y1="135.5" x2="836" y2="135.5"
      stroke="#e5e7eb" stroke-width="1"/>
    <text x="56" y="135.5" text-anchor="end" dominant-baseline="middle"
      font-size="11" fill="#6b7280">84</text>
    <line x1="64" y1="92.3" x2="836" y2="92.3"
      stroke="#e5e7eb" stroke-width="1"/>
    <text x="56" y="92.3" text-anchor="end" dominant-baseline="middle"
      font-size="11" fill="#6b7280">125</text>
    <line x1="64" y1="48.0" x2="836" y2="48.0"
      stroke="#e5e7eb" stroke-width="1"/>
    <text x="56" y="48.0" text-anchor="end" dominant-baseline="middle"
      font-size="11" fill="#6b7280">167</text>

  <!-- Areas -->
  
    <polygon points="64.0,212.4 90.6,224.0 117.2,213.5 143.9,210.3 170.5,68.0 197.1,48.0 223.7,208.2 250.3,213.5 277.0,179.7 303.6,219.8 330.2,222.9 356.8,179.7 383.4,216.6 410.1,221.9 436.7,212.4 463.3,222.9 489.9,221.9 516.6,171.3 543.2,210.3 569.8,171.3 596.4,222.9 623.0,216.6 649.7,220.8 676.3,221.9 702.9,214.5 729.5,224.0 756.1,208.2 782.8,214.5 809.4,224.0 836.0,220.8 836.0,224.0 64.0,224.0" fill="url(#grad0)"/>
    <polygon points="64.0,213.5 90.6,224.0 117.2,212.4 143.9,218.7 170.5,87.0 197.1,54.3 223.7,176.6 250.3,218.7 277.0,179.7 303.6,221.9 330.2,224.0 356.8,179.7 383.4,216.6 410.1,218.7 436.7,217.7 463.3,219.8 489.9,224.0 516.6,182.9 543.2,215.6 569.8,218.7 596.4,220.8 623.0,220.8 649.7,219.8 676.3,220.8 702.9,212.4 729.5,224.0 756.1,209.2 782.8,222.9 809.4,224.0 836.0,221.9 836.0,224.0 64.0,224.0" fill="url(#grad1)"/>

  <!-- Lines -->
  
    <polyline points="64.0,212.4 90.6,224.0 117.2,213.5 143.9,210.3 170.5,68.0 197.1,48.0 223.7,208.2 250.3,213.5 277.0,179.7 303.6,219.8 330.2,222.9 356.8,179.7 383.4,216.6 410.1,221.9 436.7,212.4 463.3,222.9 489.9,221.9 516.6,171.3 543.2,210.3 569.8,171.3 596.4,222.9 623.0,216.6 649.7,220.8 676.3,221.9 702.9,214.5 729.5,224.0 756.1,208.2 782.8,214.5 809.4,224.0 836.0,220.8"
      fill="none" stroke="#6366f1" stroke-width="2.2"
      stroke-linejoin="round" stroke-linecap="round"/>
    <polyline points="64.0,213.5 90.6,224.0 117.2,212.4 143.9,218.7 170.5,87.0 197.1,54.3 223.7,176.6 250.3,218.7 277.0,179.7 303.6,221.9 330.2,224.0 356.8,179.7 383.4,216.6 410.1,218.7 436.7,217.7 463.3,219.8 489.9,224.0 516.6,182.9 543.2,215.6 569.8,218.7 596.4,220.8 623.0,220.8 649.7,219.8 676.3,220.8 702.9,212.4 729.5,224.0 756.1,209.2 782.8,222.9 809.4,224.0 836.0,221.9"
      fill="none" stroke="#10b981" stroke-width="2.2"
      stroke-linejoin="round" stroke-linecap="round"/>

  <!-- X axis labels -->
  
    <text x="64.0" y="242"
      text-anchor="middle" font-size="11" fill="#6b7280">Jun 14</text>
    <text x="197.1" y="242"
      text-anchor="middle" font-size="11" fill="#6b7280">Jun 19</text>
    <text x="330.2" y="242"
      text-anchor="middle" font-size="11" fill="#6b7280">Jun 24</text>
    <text x="463.3" y="242"
      text-anchor="middle" font-size="11" fill="#6b7280">Jun 29</text>
    <text x="596.4" y="242"
      text-anchor="middle" font-size="11" fill="#6b7280">Jul 4</text>
    <text x="729.5" y="242"
      text-anchor="middle" font-size="11" fill="#6b7280">Jul 9</text>
    <text x="836.0" y="242"
      text-anchor="middle" font-size="11" fill="#6b7280">Jul 13</text>

  <!-- End-point dots -->
  
    <circle cx="836.0" cy="220.8" r="4"
      fill="#6366f1" stroke="#fff" stroke-width="2">
      <title>3 downloads</title>
    </circle>
    <circle cx="836.0" cy="221.9" r="4"
      fill="#10b981" stroke="#fff" stroke-width="2">
      <title>2 downloads</title>
    </circle>

  <!-- Legend (top-left) -->
  
    <rect x="64" y="12" width="12" height="12" rx="3" fill="#6366f1"/>
    <text x="82" y="22" font-size="13" fill="#374151" font-weight="600">
      @doquflow/cli
    </text>
    <text x="82" y="36" font-size="11" fill="#6b7280">
      648 last 30 days
    </text>
    <rect x="284" y="12" width="12" height="12" rx="3" fill="#10b981"/>
    <text x="302" y="22" font-size="13" fill="#374151" font-weight="600">
      @doquflow/server
    </text>
    <text x="302" y="36" font-size="11" fill="#6b7280">
      568 last 30 days
    </text>

  <!-- Updated timestamp (bottom-right) -->
  <text x="836" y="272" text-anchor="end"
    font-size="10" fill="#9ca3af">Updated 2026-07-14</text>

  <!-- Axes -->
  <line x1="64" y1="48" x2="64" y2="224"
    stroke="#d1d5db" stroke-width="1"/>
  <line x1="64" y1="224" x2="836" y2="224"
    stroke="#d1d5db" stroke-width="1"/>
</svg>