<svg xmlns="http://www.w3.org/2000/svg" width="860" height="280"
  viewBox="0 0 860 280" style="background:#fff;border-radius:12px;font-family:system-ui,sans-serif">
  <defs>
    <linearGradient id="grad0" x1="0" y1="0" x2="0" y2="1">
      <stop offset="0%"   stop-color="#818cf8" stop-opacity="0.35"/>
      <stop offset="100%" stop-color="#818cf8" stop-opacity="0.02"/>
    </linearGradient>
    <linearGradient id="grad1" x1="0" y1="0" x2="0" y2="1">
      <stop offset="0%"   stop-color="#34d399" stop-opacity="0.35"/>
      <stop offset="100%" stop-color="#34d399" stop-opacity="0.02"/>
    </linearGradient>
  </defs>

  <!-- Y grid + labels -->
  
    <line x1="64" y1="224.0" x2="836" y2="224.0"
      stroke="#e5e7eb" stroke-width="1"/>
    <text x="56" y="224.0" text-anchor="end" dominant-baseline="middle"
      font-size="11" fill="#6b7280">0</text>
    <line x1="64" y1="179.9" x2="836" y2="179.9"
      stroke="#e5e7eb" stroke-width="1"/>
    <text x="56" y="179.9" text-anchor="end" dominant-baseline="middle"
      font-size="11" fill="#6b7280">183</text>
    <line x1="64" y1="136.0" x2="836" y2="136.0"
      stroke="#e5e7eb" stroke-width="1"/>
    <text x="56" y="136.0" text-anchor="end" dominant-baseline="middle"
      font-size="11" fill="#6b7280">365</text>
    <line x1="64" y1="91.9" x2="836" y2="91.9"
      stroke="#e5e7eb" stroke-width="1"/>
    <text x="56" y="91.9" text-anchor="end" dominant-baseline="middle"
      font-size="11" fill="#6b7280">548</text>
    <line x1="64" y1="48.0" x2="836" y2="48.0"
      stroke="#e5e7eb" stroke-width="1"/>
    <text x="56" y="48.0" text-anchor="end" dominant-baseline="middle"
      font-size="11" fill="#6b7280">730</text>

  <!-- Areas -->
  
    <polygon points="64.0,222.8 90.6,223.8 117.2,62.9 143.9,220.1 170.5,219.7 197.1,216.3 223.7,220.9 250.3,223.8 277.0,223.8 303.6,221.3 330.2,79.1 356.8,211.9 383.4,223.5 410.1,221.8 436.7,219.2 463.3,219.9 489.9,87.3 516.6,215.1 543.2,70.7 569.8,216.5 596.4,212.2 623.0,216.5 649.7,190.0 676.3,218.0 702.9,219.7 729.5,223.5 756.1,223.8 782.8,213.9 809.4,174.3 836.0,189.5 836.0,224.0 64.0,224.0" fill="url(#grad0)"/>
    <polygon points="64.0,222.8 90.6,223.8 117.2,48.0 143.9,220.4 170.5,217.2 197.1,212.9 223.7,220.6 250.3,223.8 277.0,224.0 303.6,220.6 330.2,72.1 356.8,214.1 383.4,222.6 410.1,218.7 436.7,223.0 463.3,219.7 489.9,79.1 516.6,215.6 543.2,54.5 569.8,214.1 596.4,209.5 623.0,216.3 649.7,186.9 676.3,219.2 702.9,221.6 729.5,222.8 756.1,223.5 782.8,212.7 809.4,171.2 836.0,191.5 836.0,224.0 64.0,224.0" fill="url(#grad1)"/>

  <!-- Lines -->
  
    <polyline points="64.0,222.8 90.6,223.8 117.2,62.9 143.9,220.1 170.5,219.7 197.1,216.3 223.7,220.9 250.3,223.8 277.0,223.8 303.6,221.3 330.2,79.1 356.8,211.9 383.4,223.5 410.1,221.8 436.7,219.2 463.3,219.9 489.9,87.3 516.6,215.1 543.2,70.7 569.8,216.5 596.4,212.2 623.0,216.5 649.7,190.0 676.3,218.0 702.9,219.7 729.5,223.5 756.1,223.8 782.8,213.9 809.4,174.3 836.0,189.5"
      fill="none" stroke="#6366f1" stroke-width="2.2"
      stroke-linejoin="round" stroke-linecap="round"/>
    <polyline points="64.0,222.8 90.6,223.8 117.2,48.0 143.9,220.4 170.5,217.2 197.1,212.9 223.7,220.6 250.3,223.8 277.0,224.0 303.6,220.6 330.2,72.1 356.8,214.1 383.4,222.6 410.1,218.7 436.7,223.0 463.3,219.7 489.9,79.1 516.6,215.6 543.2,54.5 569.8,214.1 596.4,209.5 623.0,216.3 649.7,186.9 676.3,219.2 702.9,221.6 729.5,222.8 756.1,223.5 782.8,212.7 809.4,171.2 836.0,191.5"
      fill="none" stroke="#10b981" stroke-width="2.2"
      stroke-linejoin="round" stroke-linecap="round"/>

  <!-- X axis labels -->
  
    <text x="64.0" y="242"
      text-anchor="middle" font-size="11" fill="#6b7280">Apr 21</text>
    <text x="197.1" y="242"
      text-anchor="middle" font-size="11" fill="#6b7280">Apr 26</text>
    <text x="330.2" y="242"
      text-anchor="middle" font-size="11" fill="#6b7280">May 1</text>
    <text x="463.3" y="242"
      text-anchor="middle" font-size="11" fill="#6b7280">May 6</text>
    <text x="596.4" y="242"
      text-anchor="middle" font-size="11" fill="#6b7280">May 11</text>
    <text x="729.5" y="242"
      text-anchor="middle" font-size="11" fill="#6b7280">May 16</text>
    <text x="836.0" y="242"
      text-anchor="middle" font-size="11" fill="#6b7280">May 20</text>

  <!-- End-point dots -->
  
    <circle cx="836.0" cy="189.5" r="4"
      fill="#6366f1" stroke="#fff" stroke-width="2">
      <title>143 downloads</title>
    </circle>
    <circle cx="836.0" cy="191.5" r="4"
      fill="#10b981" stroke="#fff" stroke-width="2">
      <title>135 downloads</title>
    </circle>

  <!-- Legend (top-left) -->
  
    <rect x="64" y="12" width="12" height="12" rx="3" fill="#6366f1"/>
    <text x="82" y="22" font-size="13" fill="#374151" font-weight="600">
      @doquflow/cli
    </text>
    <text x="82" y="36" font-size="11" fill="#6b7280">
      3,394 last 30 days
    </text>
    <rect x="284" y="12" width="12" height="12" rx="3" fill="#10b981"/>
    <text x="302" y="22" font-size="13" fill="#374151" font-weight="600">
      @doquflow/server
    </text>
    <text x="302" y="36" font-size="11" fill="#6b7280">
      3,639 last 30 days
    </text>

  <!-- Updated timestamp (bottom-right) -->
  <text x="836" y="272" text-anchor="end"
    font-size="10" fill="#9ca3af">Updated 2026-05-22</text>

  <!-- Axes -->
  <line x1="64" y1="48" x2="64" y2="224"
    stroke="#d1d5db" stroke-width="1"/>
  <line x1="64" y1="224" x2="836" y2="224"
    stroke="#d1d5db" stroke-width="1"/>
</svg>