<svg xmlns="http://www.w3.org/2000/svg" width="860" height="280"
  viewBox="0 0 860 280" style="background:#fff;border-radius:12px;font-family:system-ui,sans-serif">
  <defs>
    <linearGradient id="grad0" x1="0" y1="0" x2="0" y2="1">
      <stop offset="0%"   stop-color="#818cf8" stop-opacity="0.35"/>
      <stop offset="100%" stop-color="#818cf8" stop-opacity="0.02"/>
    </linearGradient>
    <linearGradient id="grad1" x1="0" y1="0" x2="0" y2="1">
      <stop offset="0%"   stop-color="#34d399" stop-opacity="0.35"/>
      <stop offset="100%" stop-color="#34d399" stop-opacity="0.02"/>
    </linearGradient>
  </defs>

  <!-- Y grid + labels -->
  
    <line x1="64" y1="224.0" x2="836" y2="224.0"
      stroke="#e5e7eb" stroke-width="1"/>
    <text x="56" y="224.0" text-anchor="end" dominant-baseline="middle"
      font-size="11" fill="#6b7280">0</text>
    <line x1="64" y1="179.9" x2="836" y2="179.9"
      stroke="#e5e7eb" stroke-width="1"/>
    <text x="56" y="179.9" text-anchor="end" dominant-baseline="middle"
      font-size="11" fill="#6b7280">176</text>
    <line x1="64" y1="135.9" x2="836" y2="135.9"
      stroke="#e5e7eb" stroke-width="1"/>
    <text x="56" y="135.9" text-anchor="end" dominant-baseline="middle"
      font-size="11" fill="#6b7280">352</text>
    <line x1="64" y1="92.1" x2="836" y2="92.1"
      stroke="#e5e7eb" stroke-width="1"/>
    <text x="56" y="92.1" text-anchor="end" dominant-baseline="middle"
      font-size="11" fill="#6b7280">527</text>
    <line x1="64" y1="48.0" x2="836" y2="48.0"
      stroke="#e5e7eb" stroke-width="1"/>
    <text x="56" y="48.0" text-anchor="end" dominant-baseline="middle"
      font-size="11" fill="#6b7280">703</text>

  <!-- Areas -->
  
    <polygon points="64.0,220.0 90.6,219.5 117.2,216.0 143.9,220.7 170.5,223.7 197.1,223.7 223.7,221.2 250.3,73.5 277.0,211.5 303.6,223.5 330.2,221.7 356.8,219.0 383.4,219.7 410.1,82.0 436.7,214.7 463.3,64.8 489.9,216.2 516.6,211.7 543.2,216.2 569.8,188.7 596.4,217.7 623.0,219.5 649.7,223.5 676.3,223.7 702.9,213.5 729.5,172.4 756.1,188.2 782.8,210.0 809.4,222.2 836.0,214.7 836.0,224.0 64.0,224.0" fill="url(#grad0)"/>
    <polygon points="64.0,220.2 90.6,217.0 117.2,212.5 143.9,220.5 170.5,223.7 197.1,224.0 223.7,220.5 250.3,66.3 277.0,213.7 303.6,222.5 330.2,218.5 356.8,223.0 383.4,219.5 410.1,73.5 436.7,215.2 463.3,48.0 489.9,213.7 516.6,209.0 543.2,216.0 569.8,185.4 596.4,219.0 623.0,221.5 649.7,222.7 676.3,223.5 702.9,212.2 729.5,169.2 756.1,190.2 782.8,212.2 809.4,220.7 836.0,214.5 836.0,224.0 64.0,224.0" fill="url(#grad1)"/>

  <!-- Lines -->
  
    <polyline points="64.0,220.0 90.6,219.5 117.2,216.0 143.9,220.7 170.5,223.7 197.1,223.7 223.7,221.2 250.3,73.5 277.0,211.5 303.6,223.5 330.2,221.7 356.8,219.0 383.4,219.7 410.1,82.0 436.7,214.7 463.3,64.8 489.9,216.2 516.6,211.7 543.2,216.2 569.8,188.7 596.4,217.7 623.0,219.5 649.7,223.5 676.3,223.7 702.9,213.5 729.5,172.4 756.1,188.2 782.8,210.0 809.4,222.2 836.0,214.7"
      fill="none" stroke="#6366f1" stroke-width="2.2"
      stroke-linejoin="round" stroke-linecap="round"/>
    <polyline points="64.0,220.2 90.6,217.0 117.2,212.5 143.9,220.5 170.5,223.7 197.1,224.0 223.7,220.5 250.3,66.3 277.0,213.7 303.6,222.5 330.2,218.5 356.8,223.0 383.4,219.5 410.1,73.5 436.7,215.2 463.3,48.0 489.9,213.7 516.6,209.0 543.2,216.0 569.8,185.4 596.4,219.0 623.0,221.5 649.7,222.7 676.3,223.5 702.9,212.2 729.5,169.2 756.1,190.2 782.8,212.2 809.4,220.7 836.0,214.5"
      fill="none" stroke="#10b981" stroke-width="2.2"
      stroke-linejoin="round" stroke-linecap="round"/>

  <!-- X axis labels -->
  
    <text x="64.0" y="242"
      text-anchor="middle" font-size="11" fill="#6b7280">Apr 24</text>
    <text x="197.1" y="242"
      text-anchor="middle" font-size="11" fill="#6b7280">Apr 29</text>
    <text x="330.2" y="242"
      text-anchor="middle" font-size="11" fill="#6b7280">May 4</text>
    <text x="463.3" y="242"
      text-anchor="middle" font-size="11" fill="#6b7280">May 9</text>
    <text x="596.4" y="242"
      text-anchor="middle" font-size="11" fill="#6b7280">May 14</text>
    <text x="729.5" y="242"
      text-anchor="middle" font-size="11" fill="#6b7280">May 19</text>
    <text x="836.0" y="242"
      text-anchor="middle" font-size="11" fill="#6b7280">May 23</text>

  <!-- End-point dots -->
  
    <circle cx="836.0" cy="214.7" r="4"
      fill="#6366f1" stroke="#fff" stroke-width="2">
      <title>37 downloads</title>
    </circle>
    <circle cx="836.0" cy="214.5" r="4"
      fill="#10b981" stroke="#fff" stroke-width="2">
      <title>38 downloads</title>
    </circle>

  <!-- Legend (top-left) -->
  
    <rect x="64" y="12" width="12" height="12" rx="3" fill="#6366f1"/>
    <text x="82" y="22" font-size="13" fill="#374151" font-weight="600">
      @doquflow/cli
    </text>
    <text x="82" y="36" font-size="11" fill="#6b7280">
      2,820 last 30 days
    </text>
    <rect x="284" y="12" width="12" height="12" rx="3" fill="#10b981"/>
    <text x="302" y="22" font-size="13" fill="#374151" font-weight="600">
      @doquflow/server
    </text>
    <text x="302" y="36" font-size="11" fill="#6b7280">
      3,001 last 30 days
    </text>

  <!-- Updated timestamp (bottom-right) -->
  <text x="836" y="272" text-anchor="end"
    font-size="10" fill="#9ca3af">Updated 2026-05-25</text>

  <!-- Axes -->
  <line x1="64" y1="48" x2="64" y2="224"
    stroke="#d1d5db" stroke-width="1"/>
  <line x1="64" y1="224" x2="836" y2="224"
    stroke="#d1d5db" stroke-width="1"/>
</svg>