<svg xmlns="http://www.w3.org/2000/svg" width="860" height="280"
  viewBox="0 0 860 280" style="background:#fff;border-radius:12px;font-family:system-ui,sans-serif">
  <defs>
    <linearGradient id="grad0" x1="0" y1="0" x2="0" y2="1">
      <stop offset="0%"   stop-color="#818cf8" stop-opacity="0.35"/>
      <stop offset="100%" stop-color="#818cf8" stop-opacity="0.02"/>
    </linearGradient>
    <linearGradient id="grad1" x1="0" y1="0" x2="0" y2="1">
      <stop offset="0%"   stop-color="#34d399" stop-opacity="0.35"/>
      <stop offset="100%" stop-color="#34d399" stop-opacity="0.02"/>
    </linearGradient>
  </defs>

  <!-- Y grid + labels -->
  
    <line x1="64" y1="224.0" x2="836" y2="224.0"
      stroke="#e5e7eb" stroke-width="1"/>
    <text x="56" y="224.0" text-anchor="end" dominant-baseline="middle"
      font-size="11" fill="#6b7280">0</text>
    <line x1="64" y1="179.9" x2="836" y2="179.9"
      stroke="#e5e7eb" stroke-width="1"/>
    <text x="56" y="179.9" text-anchor="end" dominant-baseline="middle"
      font-size="11" fill="#6b7280">176</text>
    <line x1="64" y1="135.9" x2="836" y2="135.9"
      stroke="#e5e7eb" stroke-width="1"/>
    <text x="56" y="135.9" text-anchor="end" dominant-baseline="middle"
      font-size="11" fill="#6b7280">352</text>
    <line x1="64" y1="92.1" x2="836" y2="92.1"
      stroke="#e5e7eb" stroke-width="1"/>
    <text x="56" y="92.1" text-anchor="end" dominant-baseline="middle"
      font-size="11" fill="#6b7280">527</text>
    <line x1="64" y1="48.0" x2="836" y2="48.0"
      stroke="#e5e7eb" stroke-width="1"/>
    <text x="56" y="48.0" text-anchor="end" dominant-baseline="middle"
      font-size="11" fill="#6b7280">703</text>

  <!-- Areas -->
  
    <polygon points="64.0,211.5 90.6,223.5 117.2,221.7 143.9,219.0 170.5,219.7 197.1,82.0 223.7,214.7 250.3,64.8 277.0,216.2 303.6,211.7 330.2,216.2 356.8,188.7 383.4,217.7 410.1,219.5 436.7,223.5 463.3,223.7 489.9,213.5 516.6,172.4 543.2,188.2 569.8,210.0 596.4,222.2 623.0,214.7 649.7,223.7 676.3,217.7 702.9,224.0 729.5,223.7 756.1,223.7 782.8,223.5 809.4,224.0 836.0,224.0 836.0,224.0 64.0,224.0" fill="url(#grad0)"/>
    <polygon points="64.0,213.7 90.6,222.5 117.2,218.5 143.9,223.0 170.5,219.5 197.1,73.5 223.7,215.2 250.3,48.0 277.0,213.7 303.6,209.0 330.2,216.0 356.8,185.4 383.4,219.0 410.1,221.5 436.7,222.7 463.3,223.5 489.9,212.2 516.6,169.2 543.2,190.2 569.8,212.2 596.4,220.7 623.0,214.5 649.7,223.0 676.3,217.5 702.9,224.0 729.5,223.7 756.1,215.2 782.8,223.2 809.4,223.5 836.0,223.7 836.0,224.0 64.0,224.0" fill="url(#grad1)"/>

  <!-- Lines -->
  
    <polyline points="64.0,211.5 90.6,223.5 117.2,221.7 143.9,219.0 170.5,219.7 197.1,82.0 223.7,214.7 250.3,64.8 277.0,216.2 303.6,211.7 330.2,216.2 356.8,188.7 383.4,217.7 410.1,219.5 436.7,223.5 463.3,223.7 489.9,213.5 516.6,172.4 543.2,188.2 569.8,210.0 596.4,222.2 623.0,214.7 649.7,223.7 676.3,217.7 702.9,224.0 729.5,223.7 756.1,223.7 782.8,223.5 809.4,224.0 836.0,224.0"
      fill="none" stroke="#6366f1" stroke-width="2.2"
      stroke-linejoin="round" stroke-linecap="round"/>
    <polyline points="64.0,213.7 90.6,222.5 117.2,218.5 143.9,223.0 170.5,219.5 197.1,73.5 223.7,215.2 250.3,48.0 277.0,213.7 303.6,209.0 330.2,216.0 356.8,185.4 383.4,219.0 410.1,221.5 436.7,222.7 463.3,223.5 489.9,212.2 516.6,169.2 543.2,190.2 569.8,212.2 596.4,220.7 623.0,214.5 649.7,223.0 676.3,217.5 702.9,224.0 729.5,223.7 756.1,215.2 782.8,223.2 809.4,223.5 836.0,223.7"
      fill="none" stroke="#10b981" stroke-width="2.2"
      stroke-linejoin="round" stroke-linecap="round"/>

  <!-- X axis labels -->
  
    <text x="64.0" y="242"
      text-anchor="middle" font-size="11" fill="#6b7280">May 2</text>
    <text x="197.1" y="242"
      text-anchor="middle" font-size="11" fill="#6b7280">May 7</text>
    <text x="330.2" y="242"
      text-anchor="middle" font-size="11" fill="#6b7280">May 12</text>
    <text x="463.3" y="242"
      text-anchor="middle" font-size="11" fill="#6b7280">May 17</text>
    <text x="596.4" y="242"
      text-anchor="middle" font-size="11" fill="#6b7280">May 22</text>
    <text x="729.5" y="242"
      text-anchor="middle" font-size="11" fill="#6b7280">May 27</text>
    <text x="836.0" y="242"
      text-anchor="middle" font-size="11" fill="#6b7280">May 31</text>

  <!-- End-point dots -->
  
    <circle cx="836.0" cy="224.0" r="4"
      fill="#6366f1" stroke="#fff" stroke-width="2">
      <title>0 downloads</title>
    </circle>
    <circle cx="836.0" cy="223.7" r="4"
      fill="#10b981" stroke="#fff" stroke-width="2">
      <title>1 downloads</title>
    </circle>

  <!-- Legend (top-left) -->
  
    <rect x="64" y="12" width="12" height="12" rx="3" fill="#6366f1"/>
    <text x="82" y="22" font-size="13" fill="#374151" font-weight="600">
      @doquflow/cli
    </text>
    <text x="82" y="36" font-size="11" fill="#6b7280">
      2,157 last 30 days
    </text>
    <rect x="284" y="12" width="12" height="12" rx="3" fill="#10b981"/>
    <text x="302" y="22" font-size="13" fill="#374151" font-weight="600">
      @doquflow/server
    </text>
    <text x="302" y="36" font-size="11" fill="#6b7280">
      2,325 last 30 days
    </text>

  <!-- Updated timestamp (bottom-right) -->
  <text x="836" y="272" text-anchor="end"
    font-size="10" fill="#9ca3af">Updated 2026-06-02</text>

  <!-- Axes -->
  <line x1="64" y1="48" x2="64" y2="224"
    stroke="#d1d5db" stroke-width="1"/>
  <line x1="64" y1="224" x2="836" y2="224"
    stroke="#d1d5db" stroke-width="1"/>
</svg>