<svg xmlns="http://www.w3.org/2000/svg" width="860" height="280"
  viewBox="0 0 860 280" style="background:#fff;border-radius:12px;font-family:system-ui,sans-serif">
  <defs>
    <linearGradient id="grad0" x1="0" y1="0" x2="0" y2="1">
      <stop offset="0%"   stop-color="#818cf8" stop-opacity="0.35"/>
      <stop offset="100%" stop-color="#818cf8" stop-opacity="0.02"/>
    </linearGradient>
    <linearGradient id="grad1" x1="0" y1="0" x2="0" y2="1">
      <stop offset="0%"   stop-color="#34d399" stop-opacity="0.35"/>
      <stop offset="100%" stop-color="#34d399" stop-opacity="0.02"/>
    </linearGradient>
  </defs>

  <!-- Y grid + labels -->
  
    <line x1="64" y1="224.0" x2="836" y2="224.0"
      stroke="#e5e7eb" stroke-width="1"/>
    <text x="56" y="224.0" text-anchor="end" dominant-baseline="middle"
      font-size="11" fill="#6b7280">0</text>
    <line x1="64" y1="180.1" x2="836" y2="180.1"
      stroke="#e5e7eb" stroke-width="1"/>
    <text x="56" y="180.1" text-anchor="end" dominant-baseline="middle"
      font-size="11" fill="#6b7280">124</text>
    <line x1="64" y1="135.8" x2="836" y2="135.8"
      stroke="#e5e7eb" stroke-width="1"/>
    <text x="56" y="135.8" text-anchor="end" dominant-baseline="middle"
      font-size="11" fill="#6b7280">249</text>
    <line x1="64" y1="91.9" x2="836" y2="91.9"
      stroke="#e5e7eb" stroke-width="1"/>
    <text x="56" y="91.9" text-anchor="end" dominant-baseline="middle"
      font-size="11" fill="#6b7280">373</text>
    <line x1="64" y1="48.0" x2="836" y2="48.0"
      stroke="#e5e7eb" stroke-width="1"/>
    <text x="56" y="48.0" text-anchor="end" dominant-baseline="middle"
      font-size="11" fill="#6b7280">497</text>

  <!-- Areas -->
  
    <polygon points="64.0,220.1 90.6,224.0 117.2,220.8 143.9,222.6 170.5,211.6 197.1,90.1 223.7,48.0 250.3,212.7 277.0,220.1 303.6,220.1 330.2,224.0 356.8,220.5 383.4,219.4 410.1,171.6 436.7,164.9 463.3,218.7 489.9,220.5 516.6,209.1 543.2,222.6 569.8,223.6 596.4,209.1 623.0,221.5 649.7,223.3 676.3,220.1 702.9,223.6 729.5,223.3 756.1,206.3 782.8,219.4 809.4,206.3 836.0,223.6 836.0,224.0 64.0,224.0" fill="url(#grad0)"/>
    <polygon points="64.0,220.1 90.6,224.0 117.2,222.2 143.9,222.6 170.5,209.1 197.1,92.3 223.7,61.8 250.3,213.7 277.0,220.5 303.6,220.5 330.2,224.0 356.8,220.1 383.4,222.2 410.1,178.0 436.7,167.0 463.3,208.1 489.9,222.2 516.6,209.1 543.2,223.3 569.8,224.0 596.4,209.1 623.0,221.5 649.7,222.2 676.3,221.9 702.9,222.6 729.5,224.0 756.1,210.2 782.8,221.2 809.4,222.2 836.0,222.9 836.0,224.0 64.0,224.0" fill="url(#grad1)"/>

  <!-- Lines -->
  
    <polyline points="64.0,220.1 90.6,224.0 117.2,220.8 143.9,222.6 170.5,211.6 197.1,90.1 223.7,48.0 250.3,212.7 277.0,220.1 303.6,220.1 330.2,224.0 356.8,220.5 383.4,219.4 410.1,171.6 436.7,164.9 463.3,218.7 489.9,220.5 516.6,209.1 543.2,222.6 569.8,223.6 596.4,209.1 623.0,221.5 649.7,223.3 676.3,220.1 702.9,223.6 729.5,223.3 756.1,206.3 782.8,219.4 809.4,206.3 836.0,223.6"
      fill="none" stroke="#6366f1" stroke-width="2.2"
      stroke-linejoin="round" stroke-linecap="round"/>
    <polyline points="64.0,220.1 90.6,224.0 117.2,222.2 143.9,222.6 170.5,209.1 197.1,92.3 223.7,61.8 250.3,213.7 277.0,220.5 303.6,220.5 330.2,224.0 356.8,220.1 383.4,222.2 410.1,178.0 436.7,167.0 463.3,208.1 489.9,222.2 516.6,209.1 543.2,223.3 569.8,224.0 596.4,209.1 623.0,221.5 649.7,222.2 676.3,221.9 702.9,222.6 729.5,224.0 756.1,210.2 782.8,221.2 809.4,222.2 836.0,222.9"
      fill="none" stroke="#10b981" stroke-width="2.2"
      stroke-linejoin="round" stroke-linecap="round"/>

  <!-- X axis labels -->
  
    <text x="64.0" y="242"
      text-anchor="middle" font-size="11" fill="#6b7280">Jun 5</text>
    <text x="197.1" y="242"
      text-anchor="middle" font-size="11" fill="#6b7280">Jun 10</text>
    <text x="330.2" y="242"
      text-anchor="middle" font-size="11" fill="#6b7280">Jun 15</text>
    <text x="463.3" y="242"
      text-anchor="middle" font-size="11" fill="#6b7280">Jun 20</text>
    <text x="596.4" y="242"
      text-anchor="middle" font-size="11" fill="#6b7280">Jun 25</text>
    <text x="729.5" y="242"
      text-anchor="middle" font-size="11" fill="#6b7280">Jun 30</text>
    <text x="836.0" y="242"
      text-anchor="middle" font-size="11" fill="#6b7280">Jul 4</text>

  <!-- End-point dots -->
  
    <circle cx="836.0" cy="223.6" r="4"
      fill="#6366f1" stroke="#fff" stroke-width="2">
      <title>1 downloads</title>
    </circle>
    <circle cx="836.0" cy="222.9" r="4"
      fill="#10b981" stroke="#fff" stroke-width="2">
      <title>3 downloads</title>
    </circle>

  <!-- Legend (top-left) -->
  
    <rect x="64" y="12" width="12" height="12" rx="3" fill="#6366f1"/>
    <text x="82" y="22" font-size="13" fill="#374151" font-weight="600">
      @doquflow/cli
    </text>
    <text x="82" y="36" font-size="11" fill="#6b7280">
      1,577 last 30 days
    </text>
    <rect x="284" y="12" width="12" height="12" rx="3" fill="#10b981"/>
    <text x="302" y="22" font-size="13" fill="#374151" font-weight="600">
      @doquflow/server
    </text>
    <text x="302" y="36" font-size="11" fill="#6b7280">
      1,461 last 30 days
    </text>

  <!-- Updated timestamp (bottom-right) -->
  <text x="836" y="272" text-anchor="end"
    font-size="10" fill="#9ca3af">Updated 2026-07-05</text>

  <!-- Axes -->
  <line x1="64" y1="48" x2="64" y2="224"
    stroke="#d1d5db" stroke-width="1"/>
  <line x1="64" y1="224" x2="836" y2="224"
    stroke="#d1d5db" stroke-width="1"/>
</svg>