<svg xmlns="http://www.w3.org/2000/svg" width="860" height="280"
  viewBox="0 0 860 280" style="background:#fff;border-radius:12px;font-family:system-ui,sans-serif">
  <defs>
    <linearGradient id="grad0" x1="0" y1="0" x2="0" y2="1">
      <stop offset="0%"   stop-color="#818cf8" stop-opacity="0.35"/>
      <stop offset="100%" stop-color="#818cf8" stop-opacity="0.02"/>
    </linearGradient>
    <linearGradient id="grad1" x1="0" y1="0" x2="0" y2="1">
      <stop offset="0%"   stop-color="#34d399" stop-opacity="0.35"/>
      <stop offset="100%" stop-color="#34d399" stop-opacity="0.02"/>
    </linearGradient>
  </defs>

  <!-- Y grid + labels -->
  
    <line x1="64" y1="224.0" x2="836" y2="224.0"
      stroke="#e5e7eb" stroke-width="1"/>
    <text x="56" y="224.0" text-anchor="end" dominant-baseline="middle"
      font-size="11" fill="#6b7280">0</text>
    <line x1="64" y1="179.7" x2="836" y2="179.7"
      stroke="#e5e7eb" stroke-width="1"/>
    <text x="56" y="179.7" text-anchor="end" dominant-baseline="middle"
      font-size="11" fill="#6b7280">42</text>
    <line x1="64" y1="135.5" x2="836" y2="135.5"
      stroke="#e5e7eb" stroke-width="1"/>
    <text x="56" y="135.5" text-anchor="end" dominant-baseline="middle"
      font-size="11" fill="#6b7280">84</text>
    <line x1="64" y1="92.3" x2="836" y2="92.3"
      stroke="#e5e7eb" stroke-width="1"/>
    <text x="56" y="92.3" text-anchor="end" dominant-baseline="middle"
      font-size="11" fill="#6b7280">125</text>
    <line x1="64" y1="48.0" x2="836" y2="48.0"
      stroke="#e5e7eb" stroke-width="1"/>
    <text x="56" y="48.0" text-anchor="end" dominant-baseline="middle"
      font-size="11" fill="#6b7280">167</text>

  <!-- Areas -->
  
    <polygon points="64.0,48.0 90.6,208.2 117.2,213.5 143.9,179.7 170.5,219.8 197.1,222.9 223.7,179.7 250.3,216.6 277.0,221.9 303.6,212.4 330.2,222.9 356.8,221.9 383.4,171.3 410.1,210.3 436.7,171.3 463.3,222.9 489.9,216.6 516.6,220.8 543.2,221.9 569.8,214.5 596.4,224.0 623.0,208.2 649.7,214.5 676.3,224.0 702.9,220.8 729.5,197.7 756.1,214.5 782.8,221.9 809.4,219.8 836.0,221.9 836.0,224.0 64.0,224.0" fill="url(#grad0)"/>
    <polygon points="64.0,54.3 90.6,176.6 117.2,218.7 143.9,179.7 170.5,221.9 197.1,224.0 223.7,179.7 250.3,216.6 277.0,218.7 303.6,217.7 330.2,219.8 356.8,224.0 383.4,182.9 410.1,215.6 436.7,218.7 463.3,220.8 489.9,220.8 516.6,219.8 543.2,220.8 569.8,212.4 596.4,224.0 623.0,209.2 649.7,222.9 676.3,224.0 702.9,221.9 729.5,200.8 756.1,213.5 782.8,221.9 809.4,217.7 836.0,211.4 836.0,224.0 64.0,224.0" fill="url(#grad1)"/>

  <!-- Lines -->
  
    <polyline points="64.0,48.0 90.6,208.2 117.2,213.5 143.9,179.7 170.5,219.8 197.1,222.9 223.7,179.7 250.3,216.6 277.0,221.9 303.6,212.4 330.2,222.9 356.8,221.9 383.4,171.3 410.1,210.3 436.7,171.3 463.3,222.9 489.9,216.6 516.6,220.8 543.2,221.9 569.8,214.5 596.4,224.0 623.0,208.2 649.7,214.5 676.3,224.0 702.9,220.8 729.5,197.7 756.1,214.5 782.8,221.9 809.4,219.8 836.0,221.9"
      fill="none" stroke="#6366f1" stroke-width="2.2"
      stroke-linejoin="round" stroke-linecap="round"/>
    <polyline points="64.0,54.3 90.6,176.6 117.2,218.7 143.9,179.7 170.5,221.9 197.1,224.0 223.7,179.7 250.3,216.6 277.0,218.7 303.6,217.7 330.2,219.8 356.8,224.0 383.4,182.9 410.1,215.6 436.7,218.7 463.3,220.8 489.9,220.8 516.6,219.8 543.2,220.8 569.8,212.4 596.4,224.0 623.0,209.2 649.7,222.9 676.3,224.0 702.9,221.9 729.5,200.8 756.1,213.5 782.8,221.9 809.4,217.7 836.0,211.4"
      fill="none" stroke="#10b981" stroke-width="2.2"
      stroke-linejoin="round" stroke-linecap="round"/>

  <!-- X axis labels -->
  
    <text x="64.0" y="242"
      text-anchor="middle" font-size="11" fill="#6b7280">Jun 19</text>
    <text x="197.1" y="242"
      text-anchor="middle" font-size="11" fill="#6b7280">Jun 24</text>
    <text x="330.2" y="242"
      text-anchor="middle" font-size="11" fill="#6b7280">Jun 29</text>
    <text x="463.3" y="242"
      text-anchor="middle" font-size="11" fill="#6b7280">Jul 4</text>
    <text x="596.4" y="242"
      text-anchor="middle" font-size="11" fill="#6b7280">Jul 9</text>
    <text x="729.5" y="242"
      text-anchor="middle" font-size="11" fill="#6b7280">Jul 14</text>
    <text x="836.0" y="242"
      text-anchor="middle" font-size="11" fill="#6b7280">Jul 18</text>

  <!-- End-point dots -->
  
    <circle cx="836.0" cy="221.9" r="4"
      fill="#6366f1" stroke="#fff" stroke-width="2">
      <title>2 downloads</title>
    </circle>
    <circle cx="836.0" cy="211.4" r="4"
      fill="#10b981" stroke="#fff" stroke-width="2">
      <title>12 downloads</title>
    </circle>

  <!-- Legend (top-left) -->
  
    <rect x="64" y="12" width="12" height="12" rx="3" fill="#6366f1"/>
    <text x="82" y="22" font-size="13" fill="#374151" font-weight="600">
      @doquflow/cli
    </text>
    <text x="82" y="36" font-size="11" fill="#6b7280">
      508 last 30 days
    </text>
    <rect x="284" y="12" width="12" height="12" rx="3" fill="#10b981"/>
    <text x="302" y="22" font-size="13" fill="#374151" font-weight="600">
      @doquflow/server
    </text>
    <text x="302" y="36" font-size="11" fill="#6b7280">
      464 last 30 days
    </text>

  <!-- Updated timestamp (bottom-right) -->
  <text x="836" y="272" text-anchor="end"
    font-size="10" fill="#9ca3af">Updated 2026-07-19</text>

  <!-- Axes -->
  <line x1="64" y1="48" x2="64" y2="224"
    stroke="#d1d5db" stroke-width="1"/>
  <line x1="64" y1="224" x2="836" y2="224"
    stroke="#d1d5db" stroke-width="1"/>
</svg>