<svg xmlns="http://www.w3.org/2000/svg" width="860" height="280"
  viewBox="0 0 860 280" style="background:#fff;border-radius:12px;font-family:system-ui,sans-serif">
  <defs>
    <linearGradient id="grad0" x1="0" y1="0" x2="0" y2="1">
      <stop offset="0%"   stop-color="#818cf8" stop-opacity="0.35"/>
      <stop offset="100%" stop-color="#818cf8" stop-opacity="0.02"/>
    </linearGradient>
    <linearGradient id="grad1" x1="0" y1="0" x2="0" y2="1">
      <stop offset="0%"   stop-color="#34d399" stop-opacity="0.35"/>
      <stop offset="100%" stop-color="#34d399" stop-opacity="0.02"/>
    </linearGradient>
  </defs>

  <!-- Y grid + labels -->
  
    <line x1="64" y1="224.0" x2="836" y2="224.0"
      stroke="#e5e7eb" stroke-width="1"/>
    <text x="56" y="224.0" text-anchor="end" dominant-baseline="middle"
      font-size="11" fill="#6b7280">0</text>
    <line x1="64" y1="178.2" x2="836" y2="178.2"
      stroke="#e5e7eb" stroke-width="1"/>
    <text x="56" y="178.2" text-anchor="end" dominant-baseline="middle"
      font-size="11" fill="#6b7280">13</text>
    <line x1="64" y1="136.0" x2="836" y2="136.0"
      stroke="#e5e7eb" stroke-width="1"/>
    <text x="56" y="136.0" text-anchor="end" dominant-baseline="middle"
      font-size="11" fill="#6b7280">25</text>
    <line x1="64" y1="90.2" x2="836" y2="90.2"
      stroke="#e5e7eb" stroke-width="1"/>
    <text x="56" y="90.2" text-anchor="end" dominant-baseline="middle"
      font-size="11" fill="#6b7280">38</text>
    <line x1="64" y1="48.0" x2="836" y2="48.0"
      stroke="#e5e7eb" stroke-width="1"/>
    <text x="56" y="48.0" text-anchor="end" dominant-baseline="middle"
      font-size="11" fill="#6b7280">50</text>

  <!-- Areas -->
  
    <polygon points="64.0,188.8 90.6,76.2 117.2,209.9 143.9,220.5 170.5,76.2 197.1,199.4 223.7,217.0 250.3,185.3 277.0,220.5 303.6,217.0 330.2,48.0 356.8,178.2 383.4,48.0 410.1,220.5 436.7,199.4 463.3,213.4 489.9,217.0 516.6,192.3 543.2,224.0 569.8,171.2 596.4,192.3 623.0,224.0 649.7,213.4 676.3,136.0 702.9,192.3 729.5,217.0 756.1,209.9 782.8,217.0 809.4,213.4 836.0,209.9 836.0,224.0 64.0,224.0" fill="url(#grad0)"/>
    <polygon points="64.0,206.4 90.6,76.2 117.2,217.0 143.9,224.0 170.5,76.2 197.1,199.4 223.7,206.4 250.3,202.9 277.0,209.9 303.6,224.0 330.2,86.7 356.8,195.8 383.4,206.4 410.1,213.4 436.7,213.4 463.3,209.9 489.9,213.4 516.6,185.3 543.2,224.0 569.8,174.7 596.4,220.5 623.0,224.0 649.7,217.0 676.3,146.6 702.9,188.8 729.5,217.0 756.1,202.9 782.8,181.8 809.4,202.9 836.0,199.4 836.0,224.0 64.0,224.0" fill="url(#grad1)"/>

  <!-- Lines -->
  
    <polyline points="64.0,188.8 90.6,76.2 117.2,209.9 143.9,220.5 170.5,76.2 197.1,199.4 223.7,217.0 250.3,185.3 277.0,220.5 303.6,217.0 330.2,48.0 356.8,178.2 383.4,48.0 410.1,220.5 436.7,199.4 463.3,213.4 489.9,217.0 516.6,192.3 543.2,224.0 569.8,171.2 596.4,192.3 623.0,224.0 649.7,213.4 676.3,136.0 702.9,192.3 729.5,217.0 756.1,209.9 782.8,217.0 809.4,213.4 836.0,209.9"
      fill="none" stroke="#6366f1" stroke-width="2.2"
      stroke-linejoin="round" stroke-linecap="round"/>
    <polyline points="64.0,206.4 90.6,76.2 117.2,217.0 143.9,224.0 170.5,76.2 197.1,199.4 223.7,206.4 250.3,202.9 277.0,209.9 303.6,224.0 330.2,86.7 356.8,195.8 383.4,206.4 410.1,213.4 436.7,213.4 463.3,209.9 489.9,213.4 516.6,185.3 543.2,224.0 569.8,174.7 596.4,220.5 623.0,224.0 649.7,217.0 676.3,146.6 702.9,188.8 729.5,217.0 756.1,202.9 782.8,181.8 809.4,202.9 836.0,199.4"
      fill="none" stroke="#10b981" stroke-width="2.2"
      stroke-linejoin="round" stroke-linecap="round"/>

  <!-- X axis labels -->
  
    <text x="64.0" y="242"
      text-anchor="middle" font-size="11" fill="#6b7280">Jun 21</text>
    <text x="197.1" y="242"
      text-anchor="middle" font-size="11" fill="#6b7280">Jun 26</text>
    <text x="330.2" y="242"
      text-anchor="middle" font-size="11" fill="#6b7280">Jul 1</text>
    <text x="463.3" y="242"
      text-anchor="middle" font-size="11" fill="#6b7280">Jul 6</text>
    <text x="596.4" y="242"
      text-anchor="middle" font-size="11" fill="#6b7280">Jul 11</text>
    <text x="729.5" y="242"
      text-anchor="middle" font-size="11" fill="#6b7280">Jul 16</text>
    <text x="836.0" y="242"
      text-anchor="middle" font-size="11" fill="#6b7280">Jul 20</text>

  <!-- End-point dots -->
  
    <circle cx="836.0" cy="209.9" r="4"
      fill="#6366f1" stroke="#fff" stroke-width="2">
      <title>4 downloads</title>
    </circle>
    <circle cx="836.0" cy="199.4" r="4"
      fill="#10b981" stroke="#fff" stroke-width="2">
      <title>7 downloads</title>
    </circle>

  <!-- Legend (top-left) -->
  
    <rect x="64" y="12" width="12" height="12" rx="3" fill="#6366f1"/>
    <text x="82" y="22" font-size="13" fill="#374151" font-weight="600">
      @doquflow/cli
    </text>
    <text x="82" y="36" font-size="11" fill="#6b7280">
      333 last 30 days
    </text>
    <rect x="284" y="12" width="12" height="12" rx="3" fill="#10b981"/>
    <text x="302" y="22" font-size="13" fill="#374151" font-weight="600">
      @doquflow/server
    </text>
    <text x="302" y="36" font-size="11" fill="#6b7280">
      271 last 30 days
    </text>

  <!-- Updated timestamp (bottom-right) -->
  <text x="836" y="272" text-anchor="end"
    font-size="10" fill="#9ca3af">Updated 2026-07-22</text>

  <!-- Axes -->
  <line x1="64" y1="48" x2="64" y2="224"
    stroke="#d1d5db" stroke-width="1"/>
  <line x1="64" y1="224" x2="836" y2="224"
    stroke="#d1d5db" stroke-width="1"/>
</svg>