<svg xmlns="http://www.w3.org/2000/svg" width="860" height="280"
  viewBox="0 0 860 280" style="background:#fff;border-radius:12px;font-family:system-ui,sans-serif">
  <defs>
    <linearGradient id="grad0" x1="0" y1="0" x2="0" y2="1">
      <stop offset="0%"   stop-color="#818cf8" stop-opacity="0.35"/>
      <stop offset="100%" stop-color="#818cf8" stop-opacity="0.02"/>
    </linearGradient>
    <linearGradient id="grad1" x1="0" y1="0" x2="0" y2="1">
      <stop offset="0%"   stop-color="#34d399" stop-opacity="0.35"/>
      <stop offset="100%" stop-color="#34d399" stop-opacity="0.02"/>
    </linearGradient>
  </defs>

  <!-- Y grid + labels -->
  
    <line x1="64" y1="224.0" x2="836" y2="224.0"
      stroke="#e5e7eb" stroke-width="1"/>
    <text x="56" y="224.0" text-anchor="end" dominant-baseline="middle"
      font-size="11" fill="#6b7280">0</text>
    <line x1="64" y1="179.7" x2="836" y2="179.7"
      stroke="#e5e7eb" stroke-width="1"/>
    <text x="56" y="179.7" text-anchor="end" dominant-baseline="middle"
      font-size="11" fill="#6b7280">42</text>
    <line x1="64" y1="135.5" x2="836" y2="135.5"
      stroke="#e5e7eb" stroke-width="1"/>
    <text x="56" y="135.5" text-anchor="end" dominant-baseline="middle"
      font-size="11" fill="#6b7280">84</text>
    <line x1="64" y1="92.3" x2="836" y2="92.3"
      stroke="#e5e7eb" stroke-width="1"/>
    <text x="56" y="92.3" text-anchor="end" dominant-baseline="middle"
      font-size="11" fill="#6b7280">125</text>
    <line x1="64" y1="48.0" x2="836" y2="48.0"
      stroke="#e5e7eb" stroke-width="1"/>
    <text x="56" y="48.0" text-anchor="end" dominant-baseline="middle"
      font-size="11" fill="#6b7280">167</text>

  <!-- Areas -->
  
    <polygon points="64.0,210.3 90.6,68.0 117.2,48.0 143.9,208.2 170.5,213.5 197.1,179.7 223.7,219.8 250.3,222.9 277.0,179.7 303.6,216.6 330.2,221.9 356.8,212.4 383.4,222.9 410.1,221.9 436.7,171.3 463.3,210.3 489.9,171.3 516.6,222.9 543.2,216.6 569.8,220.8 596.4,221.9 623.0,214.5 649.7,224.0 676.3,208.2 702.9,214.5 729.5,224.0 756.1,220.8 782.8,197.7 809.4,214.5 836.0,221.9 836.0,224.0 64.0,224.0" fill="url(#grad0)"/>
    <polygon points="64.0,218.7 90.6,87.0 117.2,54.3 143.9,176.6 170.5,218.7 197.1,179.7 223.7,221.9 250.3,224.0 277.0,179.7 303.6,216.6 330.2,218.7 356.8,217.7 383.4,219.8 410.1,224.0 436.7,182.9 463.3,215.6 489.9,218.7 516.6,220.8 543.2,220.8 569.8,219.8 596.4,220.8 623.0,212.4 649.7,224.0 676.3,209.2 702.9,222.9 729.5,224.0 756.1,221.9 782.8,200.8 809.4,213.5 836.0,221.9 836.0,224.0 64.0,224.0" fill="url(#grad1)"/>

  <!-- Lines -->
  
    <polyline points="64.0,210.3 90.6,68.0 117.2,48.0 143.9,208.2 170.5,213.5 197.1,179.7 223.7,219.8 250.3,222.9 277.0,179.7 303.6,216.6 330.2,221.9 356.8,212.4 383.4,222.9 410.1,221.9 436.7,171.3 463.3,210.3 489.9,171.3 516.6,222.9 543.2,216.6 569.8,220.8 596.4,221.9 623.0,214.5 649.7,224.0 676.3,208.2 702.9,214.5 729.5,224.0 756.1,220.8 782.8,197.7 809.4,214.5 836.0,221.9"
      fill="none" stroke="#6366f1" stroke-width="2.2"
      stroke-linejoin="round" stroke-linecap="round"/>
    <polyline points="64.0,218.7 90.6,87.0 117.2,54.3 143.9,176.6 170.5,218.7 197.1,179.7 223.7,221.9 250.3,224.0 277.0,179.7 303.6,216.6 330.2,218.7 356.8,217.7 383.4,219.8 410.1,224.0 436.7,182.9 463.3,215.6 489.9,218.7 516.6,220.8 543.2,220.8 569.8,219.8 596.4,220.8 623.0,212.4 649.7,224.0 676.3,209.2 702.9,222.9 729.5,224.0 756.1,221.9 782.8,200.8 809.4,213.5 836.0,221.9"
      fill="none" stroke="#10b981" stroke-width="2.2"
      stroke-linejoin="round" stroke-linecap="round"/>

  <!-- X axis labels -->
  
    <text x="64.0" y="242"
      text-anchor="middle" font-size="11" fill="#6b7280">Jun 17</text>
    <text x="197.1" y="242"
      text-anchor="middle" font-size="11" fill="#6b7280">Jun 22</text>
    <text x="330.2" y="242"
      text-anchor="middle" font-size="11" fill="#6b7280">Jun 27</text>
    <text x="463.3" y="242"
      text-anchor="middle" font-size="11" fill="#6b7280">Jul 2</text>
    <text x="596.4" y="242"
      text-anchor="middle" font-size="11" fill="#6b7280">Jul 7</text>
    <text x="729.5" y="242"
      text-anchor="middle" font-size="11" fill="#6b7280">Jul 12</text>
    <text x="836.0" y="242"
      text-anchor="middle" font-size="11" fill="#6b7280">Jul 16</text>

  <!-- End-point dots -->
  
    <circle cx="836.0" cy="221.9" r="4"
      fill="#6366f1" stroke="#fff" stroke-width="2">
      <title>2 downloads</title>
    </circle>
    <circle cx="836.0" cy="221.9" r="4"
      fill="#10b981" stroke="#fff" stroke-width="2">
      <title>2 downloads</title>
    </circle>

  <!-- Legend (top-left) -->
  
    <rect x="64" y="12" width="12" height="12" rx="3" fill="#6366f1"/>
    <text x="82" y="22" font-size="13" fill="#374151" font-weight="600">
      @doquflow/cli
    </text>
    <text x="82" y="36" font-size="11" fill="#6b7280">
      663 last 30 days
    </text>
    <rect x="284" y="12" width="12" height="12" rx="3" fill="#10b981"/>
    <text x="302" y="22" font-size="13" fill="#374151" font-weight="600">
      @doquflow/server
    </text>
    <text x="302" y="36" font-size="11" fill="#6b7280">
      581 last 30 days
    </text>

  <!-- Updated timestamp (bottom-right) -->
  <text x="836" y="272" text-anchor="end"
    font-size="10" fill="#9ca3af">Updated 2026-07-18</text>

  <!-- Axes -->
  <line x1="64" y1="48" x2="64" y2="224"
    stroke="#d1d5db" stroke-width="1"/>
  <line x1="64" y1="224" x2="836" y2="224"
    stroke="#d1d5db" stroke-width="1"/>
</svg>