<svg xmlns="http://www.w3.org/2000/svg" width="860" height="280"
  viewBox="0 0 860 280" style="background:#fff;border-radius:12px;font-family:system-ui,sans-serif">
  <defs>
    <linearGradient id="grad0" x1="0" y1="0" x2="0" y2="1">
      <stop offset="0%"   stop-color="#818cf8" stop-opacity="0.35"/>
      <stop offset="100%" stop-color="#818cf8" stop-opacity="0.02"/>
    </linearGradient>
    <linearGradient id="grad1" x1="0" y1="0" x2="0" y2="1">
      <stop offset="0%"   stop-color="#34d399" stop-opacity="0.35"/>
      <stop offset="100%" stop-color="#34d399" stop-opacity="0.02"/>
    </linearGradient>
  </defs>

  <!-- Y grid + labels -->
  
    <line x1="64" y1="224.0" x2="836" y2="224.0"
      stroke="#e5e7eb" stroke-width="1"/>
    <text x="56" y="224.0" text-anchor="end" dominant-baseline="middle"
      font-size="11" fill="#6b7280">0</text>
    <line x1="64" y1="180.1" x2="836" y2="180.1"
      stroke="#e5e7eb" stroke-width="1"/>
    <text x="56" y="180.1" text-anchor="end" dominant-baseline="middle"
      font-size="11" fill="#6b7280">124</text>
    <line x1="64" y1="135.8" x2="836" y2="135.8"
      stroke="#e5e7eb" stroke-width="1"/>
    <text x="56" y="135.8" text-anchor="end" dominant-baseline="middle"
      font-size="11" fill="#6b7280">249</text>
    <line x1="64" y1="91.9" x2="836" y2="91.9"
      stroke="#e5e7eb" stroke-width="1"/>
    <text x="56" y="91.9" text-anchor="end" dominant-baseline="middle"
      font-size="11" fill="#6b7280">373</text>
    <line x1="64" y1="48.0" x2="836" y2="48.0"
      stroke="#e5e7eb" stroke-width="1"/>
    <text x="56" y="48.0" text-anchor="end" dominant-baseline="middle"
      font-size="11" fill="#6b7280">497</text>

  <!-- Areas -->
  
    <polygon points="64.0,224.0 90.6,220.8 117.2,222.6 143.9,211.6 170.5,90.1 197.1,48.0 223.7,212.7 250.3,220.1 277.0,220.1 303.6,224.0 330.2,220.5 356.8,219.4 383.4,171.6 410.1,164.9 436.7,218.7 463.3,220.5 489.9,209.1 516.6,222.6 543.2,223.6 569.8,209.1 596.4,221.5 623.0,223.3 649.7,220.1 676.3,223.6 702.9,223.3 729.5,206.3 756.1,219.4 782.8,206.3 809.4,223.6 836.0,221.5 836.0,224.0 64.0,224.0" fill="url(#grad0)"/>
    <polygon points="64.0,224.0 90.6,222.2 117.2,222.6 143.9,209.1 170.5,92.3 197.1,61.8 223.7,213.7 250.3,220.5 277.0,220.5 303.6,224.0 330.2,220.1 356.8,222.2 383.4,178.0 410.1,167.0 436.7,208.1 463.3,222.2 489.9,209.1 516.6,223.3 543.2,224.0 569.8,209.1 596.4,221.5 623.0,222.2 649.7,221.9 676.3,222.6 702.9,224.0 729.5,210.2 756.1,221.2 782.8,222.2 809.4,222.9 836.0,222.9 836.0,224.0 64.0,224.0" fill="url(#grad1)"/>

  <!-- Lines -->
  
    <polyline points="64.0,224.0 90.6,220.8 117.2,222.6 143.9,211.6 170.5,90.1 197.1,48.0 223.7,212.7 250.3,220.1 277.0,220.1 303.6,224.0 330.2,220.5 356.8,219.4 383.4,171.6 410.1,164.9 436.7,218.7 463.3,220.5 489.9,209.1 516.6,222.6 543.2,223.6 569.8,209.1 596.4,221.5 623.0,223.3 649.7,220.1 676.3,223.6 702.9,223.3 729.5,206.3 756.1,219.4 782.8,206.3 809.4,223.6 836.0,221.5"
      fill="none" stroke="#6366f1" stroke-width="2.2"
      stroke-linejoin="round" stroke-linecap="round"/>
    <polyline points="64.0,224.0 90.6,222.2 117.2,222.6 143.9,209.1 170.5,92.3 197.1,61.8 223.7,213.7 250.3,220.5 277.0,220.5 303.6,224.0 330.2,220.1 356.8,222.2 383.4,178.0 410.1,167.0 436.7,208.1 463.3,222.2 489.9,209.1 516.6,223.3 543.2,224.0 569.8,209.1 596.4,221.5 623.0,222.2 649.7,221.9 676.3,222.6 702.9,224.0 729.5,210.2 756.1,221.2 782.8,222.2 809.4,222.9 836.0,222.9"
      fill="none" stroke="#10b981" stroke-width="2.2"
      stroke-linejoin="round" stroke-linecap="round"/>

  <!-- X axis labels -->
  
    <text x="64.0" y="242"
      text-anchor="middle" font-size="11" fill="#6b7280">Jun 6</text>
    <text x="197.1" y="242"
      text-anchor="middle" font-size="11" fill="#6b7280">Jun 11</text>
    <text x="330.2" y="242"
      text-anchor="middle" font-size="11" fill="#6b7280">Jun 16</text>
    <text x="463.3" y="242"
      text-anchor="middle" font-size="11" fill="#6b7280">Jun 21</text>
    <text x="596.4" y="242"
      text-anchor="middle" font-size="11" fill="#6b7280">Jun 26</text>
    <text x="729.5" y="242"
      text-anchor="middle" font-size="11" fill="#6b7280">Jul 1</text>
    <text x="836.0" y="242"
      text-anchor="middle" font-size="11" fill="#6b7280">Jul 5</text>

  <!-- End-point dots -->
  
    <circle cx="836.0" cy="221.5" r="4"
      fill="#6366f1" stroke="#fff" stroke-width="2">
      <title>7 downloads</title>
    </circle>
    <circle cx="836.0" cy="222.9" r="4"
      fill="#10b981" stroke="#fff" stroke-width="2">
      <title>3 downloads</title>
    </circle>

  <!-- Legend (top-left) -->
  
    <rect x="64" y="12" width="12" height="12" rx="3" fill="#6366f1"/>
    <text x="82" y="22" font-size="13" fill="#374151" font-weight="600">
      @doquflow/cli
    </text>
    <text x="82" y="36" font-size="11" fill="#6b7280">
      1,573 last 30 days
    </text>
    <rect x="284" y="12" width="12" height="12" rx="3" fill="#10b981"/>
    <text x="302" y="22" font-size="13" fill="#374151" font-weight="600">
      @doquflow/server
    </text>
    <text x="302" y="36" font-size="11" fill="#6b7280">
      1,453 last 30 days
    </text>

  <!-- Updated timestamp (bottom-right) -->
  <text x="836" y="272" text-anchor="end"
    font-size="10" fill="#9ca3af">Updated 2026-07-08</text>

  <!-- Axes -->
  <line x1="64" y1="48" x2="64" y2="224"
    stroke="#d1d5db" stroke-width="1"/>
  <line x1="64" y1="224" x2="836" y2="224"
    stroke="#d1d5db" stroke-width="1"/>
</svg>