<svg xmlns="http://www.w3.org/2000/svg" width="860" height="280"
  viewBox="0 0 860 280" style="background:#fff;border-radius:12px;font-family:system-ui,sans-serif">
  <defs>
    <linearGradient id="grad0" x1="0" y1="0" x2="0" y2="1">
      <stop offset="0%"   stop-color="#818cf8" stop-opacity="0.35"/>
      <stop offset="100%" stop-color="#818cf8" stop-opacity="0.02"/>
    </linearGradient>
    <linearGradient id="grad1" x1="0" y1="0" x2="0" y2="1">
      <stop offset="0%"   stop-color="#34d399" stop-opacity="0.35"/>
      <stop offset="100%" stop-color="#34d399" stop-opacity="0.02"/>
    </linearGradient>
  </defs>

  <!-- Y grid + labels -->
  
    <line x1="64" y1="224.0" x2="836" y2="224.0"
      stroke="#e5e7eb" stroke-width="1"/>
    <text x="56" y="224.0" text-anchor="end" dominant-baseline="middle"
      font-size="11" fill="#6b7280">0</text>
    <line x1="64" y1="179.9" x2="836" y2="179.9"
      stroke="#e5e7eb" stroke-width="1"/>
    <text x="56" y="179.9" text-anchor="end" dominant-baseline="middle"
      font-size="11" fill="#6b7280">176</text>
    <line x1="64" y1="135.9" x2="836" y2="135.9"
      stroke="#e5e7eb" stroke-width="1"/>
    <text x="56" y="135.9" text-anchor="end" dominant-baseline="middle"
      font-size="11" fill="#6b7280">352</text>
    <line x1="64" y1="92.1" x2="836" y2="92.1"
      stroke="#e5e7eb" stroke-width="1"/>
    <text x="56" y="92.1" text-anchor="end" dominant-baseline="middle"
      font-size="11" fill="#6b7280">527</text>
    <line x1="64" y1="48.0" x2="836" y2="48.0"
      stroke="#e5e7eb" stroke-width="1"/>
    <text x="56" y="48.0" text-anchor="end" dominant-baseline="middle"
      font-size="11" fill="#6b7280">703</text>

  <!-- Areas -->
  
    <polygon points="64.0,221.7 90.6,219.0 117.2,219.7 143.9,82.0 170.5,214.7 197.1,64.8 223.7,216.2 250.3,211.7 277.0,216.2 303.6,188.7 330.2,217.7 356.8,219.5 383.4,223.5 410.1,223.7 436.7,213.5 463.3,172.4 489.9,188.2 516.6,210.0 543.2,222.2 569.8,214.7 596.4,223.7 623.0,217.7 649.7,224.0 676.3,223.7 702.9,223.7 729.5,223.5 756.1,224.0 782.8,224.0 809.4,223.2 836.0,218.5 836.0,224.0 64.0,224.0" fill="url(#grad0)"/>
    <polygon points="64.0,218.5 90.6,223.0 117.2,219.5 143.9,73.5 170.5,215.2 197.1,48.0 223.7,213.7 250.3,209.0 277.0,216.0 303.6,185.4 330.2,219.0 356.8,221.5 383.4,222.7 410.1,223.5 436.7,212.2 463.3,169.2 489.9,190.2 516.6,212.2 543.2,220.7 569.8,214.5 596.4,223.0 623.0,217.5 649.7,224.0 676.3,223.7 702.9,215.2 729.5,223.2 756.1,223.5 782.8,223.7 809.4,224.0 836.0,219.0 836.0,224.0 64.0,224.0" fill="url(#grad1)"/>

  <!-- Lines -->
  
    <polyline points="64.0,221.7 90.6,219.0 117.2,219.7 143.9,82.0 170.5,214.7 197.1,64.8 223.7,216.2 250.3,211.7 277.0,216.2 303.6,188.7 330.2,217.7 356.8,219.5 383.4,223.5 410.1,223.7 436.7,213.5 463.3,172.4 489.9,188.2 516.6,210.0 543.2,222.2 569.8,214.7 596.4,223.7 623.0,217.7 649.7,224.0 676.3,223.7 702.9,223.7 729.5,223.5 756.1,224.0 782.8,224.0 809.4,223.2 836.0,218.5"
      fill="none" stroke="#6366f1" stroke-width="2.2"
      stroke-linejoin="round" stroke-linecap="round"/>
    <polyline points="64.0,218.5 90.6,223.0 117.2,219.5 143.9,73.5 170.5,215.2 197.1,48.0 223.7,213.7 250.3,209.0 277.0,216.0 303.6,185.4 330.2,219.0 356.8,221.5 383.4,222.7 410.1,223.5 436.7,212.2 463.3,169.2 489.9,190.2 516.6,212.2 543.2,220.7 569.8,214.5 596.4,223.0 623.0,217.5 649.7,224.0 676.3,223.7 702.9,215.2 729.5,223.2 756.1,223.5 782.8,223.7 809.4,224.0 836.0,219.0"
      fill="none" stroke="#10b981" stroke-width="2.2"
      stroke-linejoin="round" stroke-linecap="round"/>

  <!-- X axis labels -->
  
    <text x="64.0" y="242"
      text-anchor="middle" font-size="11" fill="#6b7280">May 4</text>
    <text x="197.1" y="242"
      text-anchor="middle" font-size="11" fill="#6b7280">May 9</text>
    <text x="330.2" y="242"
      text-anchor="middle" font-size="11" fill="#6b7280">May 14</text>
    <text x="463.3" y="242"
      text-anchor="middle" font-size="11" fill="#6b7280">May 19</text>
    <text x="596.4" y="242"
      text-anchor="middle" font-size="11" fill="#6b7280">May 24</text>
    <text x="729.5" y="242"
      text-anchor="middle" font-size="11" fill="#6b7280">May 29</text>
    <text x="836.0" y="242"
      text-anchor="middle" font-size="11" fill="#6b7280">Jun 2</text>

  <!-- End-point dots -->
  
    <circle cx="836.0" cy="218.5" r="4"
      fill="#6366f1" stroke="#fff" stroke-width="2">
      <title>22 downloads</title>
    </circle>
    <circle cx="836.0" cy="219.0" r="4"
      fill="#10b981" stroke="#fff" stroke-width="2">
      <title>20 downloads</title>
    </circle>

  <!-- Legend (top-left) -->
  
    <rect x="64" y="12" width="12" height="12" rx="3" fill="#6366f1"/>
    <text x="82" y="22" font-size="13" fill="#374151" font-weight="600">
      @doquflow/cli
    </text>
    <text x="82" y="36" font-size="11" fill="#6b7280">
      2,130 last 30 days
    </text>
    <rect x="284" y="12" width="12" height="12" rx="3" fill="#10b981"/>
    <text x="302" y="22" font-size="13" fill="#374151" font-weight="600">
      @doquflow/server
    </text>
    <text x="302" y="36" font-size="11" fill="#6b7280">
      2,298 last 30 days
    </text>

  <!-- Updated timestamp (bottom-right) -->
  <text x="836" y="272" text-anchor="end"
    font-size="10" fill="#9ca3af">Updated 2026-06-09</text>

  <!-- Axes -->
  <line x1="64" y1="48" x2="64" y2="224"
    stroke="#d1d5db" stroke-width="1"/>
  <line x1="64" y1="224" x2="836" y2="224"
    stroke="#d1d5db" stroke-width="1"/>
</svg>