<svg xmlns="http://www.w3.org/2000/svg" width="860" height="280"
  viewBox="0 0 860 280" style="background:#fff;border-radius:12px;font-family:system-ui,sans-serif">
  <defs>
    <linearGradient id="grad0" x1="0" y1="0" x2="0" y2="1">
      <stop offset="0%"   stop-color="#818cf8" stop-opacity="0.35"/>
      <stop offset="100%" stop-color="#818cf8" stop-opacity="0.02"/>
    </linearGradient>
    <linearGradient id="grad1" x1="0" y1="0" x2="0" y2="1">
      <stop offset="0%"   stop-color="#34d399" stop-opacity="0.35"/>
      <stop offset="100%" stop-color="#34d399" stop-opacity="0.02"/>
    </linearGradient>
  </defs>

  <!-- Y grid + labels -->
  
    <line x1="64" y1="224.0" x2="836" y2="224.0"
      stroke="#e5e7eb" stroke-width="1"/>
    <text x="56" y="224.0" text-anchor="end" dominant-baseline="middle"
      font-size="11" fill="#6b7280">0</text>
    <line x1="64" y1="178.2" x2="836" y2="178.2"
      stroke="#e5e7eb" stroke-width="1"/>
    <text x="56" y="178.2" text-anchor="end" dominant-baseline="middle"
      font-size="11" fill="#6b7280">13</text>
    <line x1="64" y1="136.0" x2="836" y2="136.0"
      stroke="#e5e7eb" stroke-width="1"/>
    <text x="56" y="136.0" text-anchor="end" dominant-baseline="middle"
      font-size="11" fill="#6b7280">25</text>
    <line x1="64" y1="90.2" x2="836" y2="90.2"
      stroke="#e5e7eb" stroke-width="1"/>
    <text x="56" y="90.2" text-anchor="end" dominant-baseline="middle"
      font-size="11" fill="#6b7280">38</text>
    <line x1="64" y1="48.0" x2="836" y2="48.0"
      stroke="#e5e7eb" stroke-width="1"/>
    <text x="56" y="48.0" text-anchor="end" dominant-baseline="middle"
      font-size="11" fill="#6b7280">50</text>

  <!-- Areas -->
  
    <polygon points="64.0,209.9 90.6,220.5 117.2,76.2 143.9,199.4 170.5,217.0 197.1,185.3 223.7,220.5 250.3,217.0 277.0,48.0 303.6,178.2 330.2,48.0 356.8,220.5 383.4,199.4 410.1,213.4 436.7,217.0 463.3,192.3 489.9,224.0 516.6,171.2 543.2,192.3 569.8,224.0 596.4,213.4 623.0,136.0 649.7,192.3 676.3,217.0 702.9,209.9 729.5,217.0 756.1,213.4 782.8,209.9 809.4,224.0 836.0,206.4 836.0,224.0 64.0,224.0" fill="url(#grad0)"/>
    <polygon points="64.0,217.0 90.6,224.0 117.2,76.2 143.9,199.4 170.5,206.4 197.1,202.9 223.7,209.9 250.3,224.0 277.0,86.7 303.6,195.8 330.2,206.4 356.8,213.4 383.4,213.4 410.1,209.9 436.7,213.4 463.3,185.3 489.9,224.0 516.6,174.7 543.2,220.5 569.8,224.0 596.4,217.0 623.0,146.6 649.7,188.8 676.3,217.0 702.9,202.9 729.5,181.8 756.1,202.9 782.8,199.4 809.4,217.0 836.0,220.5 836.0,224.0 64.0,224.0" fill="url(#grad1)"/>

  <!-- Lines -->
  
    <polyline points="64.0,209.9 90.6,220.5 117.2,76.2 143.9,199.4 170.5,217.0 197.1,185.3 223.7,220.5 250.3,217.0 277.0,48.0 303.6,178.2 330.2,48.0 356.8,220.5 383.4,199.4 410.1,213.4 436.7,217.0 463.3,192.3 489.9,224.0 516.6,171.2 543.2,192.3 569.8,224.0 596.4,213.4 623.0,136.0 649.7,192.3 676.3,217.0 702.9,209.9 729.5,217.0 756.1,213.4 782.8,209.9 809.4,224.0 836.0,206.4"
      fill="none" stroke="#6366f1" stroke-width="2.2"
      stroke-linejoin="round" stroke-linecap="round"/>
    <polyline points="64.0,217.0 90.6,224.0 117.2,76.2 143.9,199.4 170.5,206.4 197.1,202.9 223.7,209.9 250.3,224.0 277.0,86.7 303.6,195.8 330.2,206.4 356.8,213.4 383.4,213.4 410.1,209.9 436.7,213.4 463.3,185.3 489.9,224.0 516.6,174.7 543.2,220.5 569.8,224.0 596.4,217.0 623.0,146.6 649.7,188.8 676.3,217.0 702.9,202.9 729.5,181.8 756.1,202.9 782.8,199.4 809.4,217.0 836.0,220.5"
      fill="none" stroke="#10b981" stroke-width="2.2"
      stroke-linejoin="round" stroke-linecap="round"/>

  <!-- X axis labels -->
  
    <text x="64.0" y="242"
      text-anchor="middle" font-size="11" fill="#6b7280">Jun 23</text>
    <text x="197.1" y="242"
      text-anchor="middle" font-size="11" fill="#6b7280">Jun 28</text>
    <text x="330.2" y="242"
      text-anchor="middle" font-size="11" fill="#6b7280">Jul 3</text>
    <text x="463.3" y="242"
      text-anchor="middle" font-size="11" fill="#6b7280">Jul 8</text>
    <text x="596.4" y="242"
      text-anchor="middle" font-size="11" fill="#6b7280">Jul 13</text>
    <text x="729.5" y="242"
      text-anchor="middle" font-size="11" fill="#6b7280">Jul 18</text>
    <text x="836.0" y="242"
      text-anchor="middle" font-size="11" fill="#6b7280">Jul 22</text>

  <!-- End-point dots -->
  
    <circle cx="836.0" cy="206.4" r="4"
      fill="#6366f1" stroke="#fff" stroke-width="2">
      <title>5 downloads</title>
    </circle>
    <circle cx="836.0" cy="220.5" r="4"
      fill="#10b981" stroke="#fff" stroke-width="2">
      <title>1 downloads</title>
    </circle>

  <!-- Legend (top-left) -->
  
    <rect x="64" y="12" width="12" height="12" rx="3" fill="#6366f1"/>
    <text x="82" y="22" font-size="13" fill="#374151" font-weight="600">
      @doquflow/cli
    </text>
    <text x="82" y="36" font-size="11" fill="#6b7280">
      286 last 30 days
    </text>
    <rect x="284" y="12" width="12" height="12" rx="3" fill="#10b981"/>
    <text x="302" y="22" font-size="13" fill="#374151" font-weight="600">
      @doquflow/server
    </text>
    <text x="302" y="36" font-size="11" fill="#6b7280">
      227 last 30 days
    </text>

  <!-- Updated timestamp (bottom-right) -->
  <text x="836" y="272" text-anchor="end"
    font-size="10" fill="#9ca3af">Updated 2026-07-24</text>

  <!-- Axes -->
  <line x1="64" y1="48" x2="64" y2="224"
    stroke="#d1d5db" stroke-width="1"/>
  <line x1="64" y1="224" x2="836" y2="224"
    stroke="#d1d5db" stroke-width="1"/>
</svg>